<mxfile host="app.diagrams.net" modified="2024-05-19T15:44:28.961Z" agent="Mozilla/5.0 (Windows NT 10.0; Win64; x64) AppleWebKit/537.36 (KHTML, like Gecko) Chrome/124.0.0.0 Safari/537.36" etag="zHRGYU8w8IUC8lZwgQIH" version="24.4.4" type="device">
  <diagram id="C5RBs43oDa-KdzZeNtuy" name="Page-1">
    <mxGraphModel dx="4155" dy="1941" grid="1" gridSize="10" guides="1" tooltips="1" connect="1" arrows="1" fold="1" page="1" pageScale="1" pageWidth="827" pageHeight="1169" math="0" shadow="0">
      <root>
        <mxCell id="WIyWlLk6GJQsqaUBKTNV-0" />
        <mxCell id="WIyWlLk6GJQsqaUBKTNV-1" parent="WIyWlLk6GJQsqaUBKTNV-0" />
        <mxCell id="hVGt1LhpxKJkZvYj-mMZ-0" value="User" style="swimlane;fontStyle=1;align=center;verticalAlign=top;childLayout=stackLayout;horizontal=1;startSize=26;horizontalStack=0;resizeParent=1;resizeParentMax=0;resizeLast=0;collapsible=1;marginBottom=0;whiteSpace=wrap;html=1;" parent="WIyWlLk6GJQsqaUBKTNV-1" vertex="1">
          <mxGeometry x="-584" y="744" width="160" height="300" as="geometry" />
        </mxCell>
        <mxCell id="hVGt1LhpxKJkZvYj-mMZ-1" value="&lt;div&gt;- ID: int&lt;/div&gt;- Name: string&lt;br&gt;- Email: string&lt;div&gt;- HashedPassword: string&lt;/div&gt;&lt;div&gt;- Salt: string&lt;/div&gt;&lt;div&gt;- Username: string&lt;br&gt;- Photo: string&lt;div&gt;- Banned: bool&lt;/div&gt;&lt;div&gt;- Importancy: Importancy&lt;/div&gt;&lt;/div&gt;" style="text;strokeColor=none;fillColor=none;align=left;verticalAlign=top;spacingLeft=4;spacingRight=4;overflow=hidden;rotatable=0;points=[[0,0.5],[1,0.5]];portConstraint=eastwest;whiteSpace=wrap;html=1;" parent="hVGt1LhpxKJkZvYj-mMZ-0" vertex="1">
          <mxGeometry y="26" width="160" height="144" as="geometry" />
        </mxCell>
        <mxCell id="hVGt1LhpxKJkZvYj-mMZ-2" value="" style="line;strokeWidth=1;fillColor=none;align=left;verticalAlign=middle;spacingTop=-1;spacingLeft=3;spacingRight=3;rotatable=0;labelPosition=right;points=[];portConstraint=eastwest;strokeColor=inherit;" parent="hVGt1LhpxKJkZvYj-mMZ-0" vertex="1">
          <mxGeometry y="170" width="160" height="8" as="geometry" />
        </mxCell>
        <mxCell id="hVGt1LhpxKJkZvYj-mMZ-3" value="+ User(name : string, email : string, password : string, username : string)&lt;div&gt;+ ChangeInfo(name : string, email : string, username : string, photo : string)&lt;/div&gt;&lt;div&gt;+ MakeAdmin(): void&lt;/div&gt;&lt;div&gt;+ Ban(): void&lt;/div&gt;" style="text;strokeColor=none;fillColor=none;align=left;verticalAlign=top;spacingLeft=4;spacingRight=4;overflow=hidden;rotatable=0;points=[[0,0.5],[1,0.5]];portConstraint=eastwest;whiteSpace=wrap;html=1;" parent="hVGt1LhpxKJkZvYj-mMZ-0" vertex="1">
          <mxGeometry y="178" width="160" height="122" as="geometry" />
        </mxCell>
        <mxCell id="hVGt1LhpxKJkZvYj-mMZ-4" value="Exercise" style="swimlane;fontStyle=1;align=center;verticalAlign=top;childLayout=stackLayout;horizontal=1;startSize=26;horizontalStack=0;resizeParent=1;resizeParentMax=0;resizeLast=0;collapsible=1;marginBottom=0;whiteSpace=wrap;html=1;" parent="WIyWlLk6GJQsqaUBKTNV-1" vertex="1">
          <mxGeometry x="256" y="64" width="160" height="100" as="geometry" />
        </mxCell>
        <mxCell id="hVGt1LhpxKJkZvYj-mMZ-5" value="&lt;div&gt;&lt;span style=&quot;background-color: initial;&quot;&gt;+ IsOfficial: bool&lt;/span&gt;&lt;/div&gt;" style="text;strokeColor=none;fillColor=none;align=left;verticalAlign=top;spacingLeft=4;spacingRight=4;overflow=hidden;rotatable=0;points=[[0,0.5],[1,0.5]];portConstraint=eastwest;whiteSpace=wrap;html=1;" parent="hVGt1LhpxKJkZvYj-mMZ-4" vertex="1">
          <mxGeometry y="26" width="160" height="24" as="geometry" />
        </mxCell>
        <mxCell id="hVGt1LhpxKJkZvYj-mMZ-6" value="" style="line;strokeWidth=1;fillColor=none;align=left;verticalAlign=middle;spacingTop=-1;spacingLeft=3;spacingRight=3;rotatable=0;labelPosition=right;points=[];portConstraint=eastwest;strokeColor=inherit;" parent="hVGt1LhpxKJkZvYj-mMZ-4" vertex="1">
          <mxGeometry y="50" width="160" height="8" as="geometry" />
        </mxCell>
        <mxCell id="hVGt1LhpxKJkZvYj-mMZ-7" value="+ Exercise(name : string, description : string)" style="text;strokeColor=none;fillColor=none;align=left;verticalAlign=top;spacingLeft=4;spacingRight=4;overflow=hidden;rotatable=0;points=[[0,0.5],[1,0.5]];portConstraint=eastwest;whiteSpace=wrap;html=1;" parent="hVGt1LhpxKJkZvYj-mMZ-4" vertex="1">
          <mxGeometry y="58" width="160" height="42" as="geometry" />
        </mxCell>
        <mxCell id="CAt87Y8O4JC6d1RtImim-4" value="PersonalPath" style="swimlane;fontStyle=1;align=center;verticalAlign=top;childLayout=stackLayout;horizontal=1;startSize=26;horizontalStack=0;resizeParent=1;resizeParentMax=0;resizeLast=0;collapsible=1;marginBottom=0;whiteSpace=wrap;html=1;" parent="WIyWlLk6GJQsqaUBKTNV-1" vertex="1">
          <mxGeometry x="523" y="164" width="160" height="110" as="geometry" />
        </mxCell>
        <mxCell id="CAt87Y8O4JC6d1RtImim-5" value="&lt;div&gt;+ ID: int&lt;/div&gt;+ CurrentPlace: int" style="text;strokeColor=none;fillColor=none;align=left;verticalAlign=top;spacingLeft=4;spacingRight=4;overflow=hidden;rotatable=0;points=[[0,0.5],[1,0.5]];portConstraint=eastwest;whiteSpace=wrap;html=1;" parent="CAt87Y8O4JC6d1RtImim-4" vertex="1">
          <mxGeometry y="26" width="160" height="34" as="geometry" />
        </mxCell>
        <mxCell id="CAt87Y8O4JC6d1RtImim-6" value="" style="line;strokeWidth=1;fillColor=none;align=left;verticalAlign=middle;spacingTop=-1;spacingLeft=3;spacingRight=3;rotatable=0;labelPosition=right;points=[];portConstraint=eastwest;strokeColor=inherit;" parent="CAt87Y8O4JC6d1RtImim-4" vertex="1">
          <mxGeometry y="60" width="160" height="8" as="geometry" />
        </mxCell>
        <mxCell id="CAt87Y8O4JC6d1RtImim-7" value="+ PersonalPath(pupil : User)" style="text;strokeColor=none;fillColor=none;align=left;verticalAlign=top;spacingLeft=4;spacingRight=4;overflow=hidden;rotatable=0;points=[[0,0.5],[1,0.5]];portConstraint=eastwest;whiteSpace=wrap;html=1;" parent="CAt87Y8O4JC6d1RtImim-4" vertex="1">
          <mxGeometry y="68" width="160" height="42" as="geometry" />
        </mxCell>
        <mxCell id="CAt87Y8O4JC6d1RtImim-8" value="Review" style="swimlane;fontStyle=1;align=center;verticalAlign=top;childLayout=stackLayout;horizontal=1;startSize=26;horizontalStack=0;resizeParent=1;resizeParentMax=0;resizeLast=0;collapsible=1;marginBottom=0;whiteSpace=wrap;html=1;" parent="WIyWlLk6GJQsqaUBKTNV-1" vertex="1">
          <mxGeometry x="-1448" y="83.5" width="160" height="130" as="geometry" />
        </mxCell>
        <mxCell id="CAt87Y8O4JC6d1RtImim-9" value="+ Ranking: int" style="text;strokeColor=none;fillColor=none;align=left;verticalAlign=top;spacingLeft=4;spacingRight=4;overflow=hidden;rotatable=0;points=[[0,0.5],[1,0.5]];portConstraint=eastwest;whiteSpace=wrap;html=1;" parent="CAt87Y8O4JC6d1RtImim-8" vertex="1">
          <mxGeometry y="26" width="160" height="26" as="geometry" />
        </mxCell>
        <mxCell id="CAt87Y8O4JC6d1RtImim-10" value="" style="line;strokeWidth=1;fillColor=none;align=left;verticalAlign=middle;spacingTop=-1;spacingLeft=3;spacingRight=3;rotatable=0;labelPosition=right;points=[];portConstraint=eastwest;strokeColor=inherit;" parent="CAt87Y8O4JC6d1RtImim-8" vertex="1">
          <mxGeometry y="52" width="160" height="8" as="geometry" />
        </mxCell>
        <mxCell id="CAt87Y8O4JC6d1RtImim-11" value="+ Review(author : User, text : string, ranking : int)&lt;div&gt;+ EditReview(text : string, ranking : int) : void&lt;/div&gt;" style="text;strokeColor=none;fillColor=none;align=left;verticalAlign=top;spacingLeft=4;spacingRight=4;overflow=hidden;rotatable=0;points=[[0,0.5],[1,0.5]];portConstraint=eastwest;whiteSpace=wrap;html=1;" parent="CAt87Y8O4JC6d1RtImim-8" vertex="1">
          <mxGeometry y="60" width="160" height="70" as="geometry" />
        </mxCell>
        <mxCell id="CAt87Y8O4JC6d1RtImim-36" value="CognitivePart" style="swimlane;fontStyle=1;align=center;verticalAlign=top;childLayout=stackLayout;horizontal=1;startSize=26;horizontalStack=0;resizeParent=1;resizeParentMax=0;resizeLast=0;collapsible=1;marginBottom=0;whiteSpace=wrap;html=1;" parent="WIyWlLk6GJQsqaUBKTNV-1" vertex="1">
          <mxGeometry x="-33" y="19" width="160" height="158" as="geometry" />
        </mxCell>
        <mxCell id="CAt87Y8O4JC6d1RtImim-37" value="+ WayOfHandling: string&lt;div&gt;+ ClassName: string&lt;/div&gt;" style="text;strokeColor=none;fillColor=none;align=left;verticalAlign=top;spacingLeft=4;spacingRight=4;overflow=hidden;rotatable=0;points=[[0,0.5],[1,0.5]];portConstraint=eastwest;whiteSpace=wrap;html=1;" parent="CAt87Y8O4JC6d1RtImim-36" vertex="1">
          <mxGeometry y="26" width="160" height="34" as="geometry" />
        </mxCell>
        <mxCell id="CAt87Y8O4JC6d1RtImim-38" value="" style="line;strokeWidth=1;fillColor=none;align=left;verticalAlign=middle;spacingTop=-1;spacingLeft=3;spacingRight=3;rotatable=0;labelPosition=right;points=[];portConstraint=eastwest;strokeColor=inherit;" parent="CAt87Y8O4JC6d1RtImim-36" vertex="1">
          <mxGeometry y="60" width="160" height="8" as="geometry" />
        </mxCell>
        <mxCell id="CAt87Y8O4JC6d1RtImim-39" value="+ CognitiveParts(id : int, text : string, title : string, way_of_handling : string, creator : User)" style="text;strokeColor=none;fillColor=none;align=left;verticalAlign=top;spacingLeft=4;spacingRight=4;overflow=hidden;rotatable=0;points=[[0,0.5],[1,0.5]];portConstraint=eastwest;whiteSpace=wrap;html=1;" parent="CAt87Y8O4JC6d1RtImim-36" vertex="1">
          <mxGeometry y="68" width="160" height="90" as="geometry" />
        </mxCell>
        <mxCell id="CAt87Y8O4JC6d1RtImim-53" value="ForumPublication" style="swimlane;fontStyle=1;align=center;verticalAlign=top;childLayout=stackLayout;horizontal=1;startSize=26;horizontalStack=0;resizeParent=1;resizeParentMax=0;resizeLast=0;collapsible=1;marginBottom=0;whiteSpace=wrap;html=1;" parent="WIyWlLk6GJQsqaUBKTNV-1" vertex="1">
          <mxGeometry x="-1198" y="83.5" width="160" height="160" as="geometry" />
        </mxCell>
        <mxCell id="CAt87Y8O4JC6d1RtImim-54" value="+ isDeleted: bool" style="text;strokeColor=none;fillColor=none;align=left;verticalAlign=top;spacingLeft=4;spacingRight=4;overflow=hidden;rotatable=0;points=[[0,0.5],[1,0.5]];portConstraint=eastwest;whiteSpace=wrap;html=1;" parent="CAt87Y8O4JC6d1RtImim-53" vertex="1">
          <mxGeometry y="26" width="160" height="26" as="geometry" />
        </mxCell>
        <mxCell id="CAt87Y8O4JC6d1RtImim-55" value="" style="line;strokeWidth=1;fillColor=none;align=left;verticalAlign=middle;spacingTop=-1;spacingLeft=3;spacingRight=3;rotatable=0;labelPosition=right;points=[];portConstraint=eastwest;strokeColor=inherit;" parent="CAt87Y8O4JC6d1RtImim-53" vertex="1">
          <mxGeometry y="52" width="160" height="8" as="geometry" />
        </mxCell>
        <mxCell id="CAt87Y8O4JC6d1RtImim-56" value="+ ForumPublication(text : string, author : User, questionPublication : ForumPublication)&lt;div&gt;+ EditInfo(text : string) : void&lt;/div&gt;&lt;div&gt;+ Delete(): void&lt;/div&gt;" style="text;strokeColor=none;fillColor=none;align=left;verticalAlign=top;spacingLeft=4;spacingRight=4;overflow=hidden;rotatable=0;points=[[0,0.5],[1,0.5]];portConstraint=eastwest;whiteSpace=wrap;html=1;" parent="CAt87Y8O4JC6d1RtImim-53" vertex="1">
          <mxGeometry y="60" width="160" height="100" as="geometry" />
        </mxCell>
        <mxCell id="CAt87Y8O4JC6d1RtImim-61" value="" style="endArrow=classic;html=1;rounded=0;entryX=1;entryY=0.885;entryDx=0;entryDy=0;entryPerimeter=0;exitX=0.5;exitY=1;exitDx=0;exitDy=0;exitPerimeter=0;" parent="CAt87Y8O4JC6d1RtImim-53" source="CAt87Y8O4JC6d1RtImim-56" target="CAt87Y8O4JC6d1RtImim-54" edge="1">
          <mxGeometry width="50" height="50" relative="1" as="geometry">
            <mxPoint x="225" y="179" as="sourcePoint" />
            <mxPoint x="-80" y="220" as="targetPoint" />
            <Array as="points">
              <mxPoint x="80" y="189" />
              <mxPoint x="200" y="189" />
              <mxPoint x="200" y="49" />
            </Array>
          </mxGeometry>
        </mxCell>
        <mxCell id="CAt87Y8O4JC6d1RtImim-62" value="0..1" style="edgeLabel;html=1;align=center;verticalAlign=middle;resizable=0;points=[];" parent="CAt87Y8O4JC6d1RtImim-61" vertex="1" connectable="0">
          <mxGeometry x="0.7891" y="-1" relative="1" as="geometry">
            <mxPoint x="-7" y="-9" as="offset" />
          </mxGeometry>
        </mxCell>
        <mxCell id="RzHxU5xDMUSASD0uNdIL-5" value="&lt;i&gt;Publication&lt;/i&gt;" style="swimlane;fontStyle=1;align=center;verticalAlign=top;childLayout=stackLayout;horizontal=1;startSize=26;horizontalStack=0;resizeParent=1;resizeParentMax=0;resizeLast=0;collapsible=1;marginBottom=0;whiteSpace=wrap;html=1;" parent="WIyWlLk6GJQsqaUBKTNV-1" vertex="1">
          <mxGeometry x="-1008" y="-208" width="160" height="130" as="geometry" />
        </mxCell>
        <mxCell id="RzHxU5xDMUSASD0uNdIL-6" value="&lt;div&gt;&lt;span style=&quot;background-color: initial;&quot;&gt;+ ID: int&lt;/span&gt;&lt;/div&gt;&lt;div&gt;&lt;span style=&quot;background-color: initial;&quot;&gt;+ Text: string&lt;/span&gt;&lt;/div&gt;&lt;div&gt;&lt;span style=&quot;background-color: initial;&quot;&gt;+ CreationDate: DateTime&lt;/span&gt;&lt;br&gt;&lt;/div&gt;" style="text;strokeColor=none;fillColor=none;align=left;verticalAlign=top;spacingLeft=4;spacingRight=4;overflow=hidden;rotatable=0;points=[[0,0.5],[1,0.5]];portConstraint=eastwest;whiteSpace=wrap;html=1;" parent="RzHxU5xDMUSASD0uNdIL-5" vertex="1">
          <mxGeometry y="26" width="160" height="54" as="geometry" />
        </mxCell>
        <mxCell id="RzHxU5xDMUSASD0uNdIL-7" value="" style="line;strokeWidth=1;fillColor=none;align=left;verticalAlign=middle;spacingTop=-1;spacingLeft=3;spacingRight=3;rotatable=0;labelPosition=right;points=[];portConstraint=eastwest;strokeColor=inherit;" parent="RzHxU5xDMUSASD0uNdIL-5" vertex="1">
          <mxGeometry y="80" width="160" height="8" as="geometry" />
        </mxCell>
        <mxCell id="RzHxU5xDMUSASD0uNdIL-8" value="+ Publication(text : string, creator : User)" style="text;strokeColor=none;fillColor=none;align=left;verticalAlign=top;spacingLeft=4;spacingRight=4;overflow=hidden;rotatable=0;points=[[0,0.5],[1,0.5]];portConstraint=eastwest;whiteSpace=wrap;html=1;" parent="RzHxU5xDMUSASD0uNdIL-5" vertex="1">
          <mxGeometry y="88" width="160" height="42" as="geometry" />
        </mxCell>
        <mxCell id="RzHxU5xDMUSASD0uNdIL-14" value="ReviewManager" style="swimlane;fontStyle=1;align=center;verticalAlign=top;childLayout=stackLayout;horizontal=1;startSize=26;horizontalStack=0;resizeParent=1;resizeParentMax=0;resizeLast=0;collapsible=1;marginBottom=0;whiteSpace=wrap;html=1;" parent="WIyWlLk6GJQsqaUBKTNV-1" vertex="1">
          <mxGeometry x="-1448" y="333.5" width="160" height="210" as="geometry" />
        </mxCell>
        <mxCell id="RzHxU5xDMUSASD0uNdIL-15" value="&amp;nbsp;" style="text;strokeColor=none;fillColor=none;align=left;verticalAlign=top;spacingLeft=4;spacingRight=4;overflow=hidden;rotatable=0;points=[[0,0.5],[1,0.5]];portConstraint=eastwest;whiteSpace=wrap;html=1;" parent="RzHxU5xDMUSASD0uNdIL-14" vertex="1">
          <mxGeometry y="26" width="160" height="26" as="geometry" />
        </mxCell>
        <mxCell id="RzHxU5xDMUSASD0uNdIL-16" value="" style="line;strokeWidth=1;fillColor=none;align=left;verticalAlign=middle;spacingTop=-1;spacingLeft=3;spacingRight=3;rotatable=0;labelPosition=right;points=[];portConstraint=eastwest;strokeColor=inherit;" parent="RzHxU5xDMUSASD0uNdIL-14" vertex="1">
          <mxGeometry y="52" width="160" height="8" as="geometry" />
        </mxCell>
        <mxCell id="RzHxU5xDMUSASD0uNdIL-17" value="+ ReviewManager()&lt;div&gt;+ AddReview(ranking : int, text : string, author : User): void&lt;/div&gt;&lt;div&gt;+ DeleteReview(review : Review): void&lt;/div&gt;&lt;div&gt;+ GetAllReviews(): Review[]&lt;/div&gt;" style="text;strokeColor=none;fillColor=none;align=left;verticalAlign=top;spacingLeft=4;spacingRight=4;overflow=hidden;rotatable=0;points=[[0,0.5],[1,0.5]];portConstraint=eastwest;whiteSpace=wrap;html=1;" parent="RzHxU5xDMUSASD0uNdIL-14" vertex="1">
          <mxGeometry y="60" width="160" height="150" as="geometry" />
        </mxCell>
        <mxCell id="RzHxU5xDMUSASD0uNdIL-22" value="ForumManager" style="swimlane;fontStyle=1;align=center;verticalAlign=top;childLayout=stackLayout;horizontal=1;startSize=26;horizontalStack=0;resizeParent=1;resizeParentMax=0;resizeLast=0;collapsible=1;marginBottom=0;whiteSpace=wrap;html=1;" parent="WIyWlLk6GJQsqaUBKTNV-1" vertex="1">
          <mxGeometry x="-1198" y="358" width="160" height="250" as="geometry" />
        </mxCell>
        <mxCell id="RzHxU5xDMUSASD0uNdIL-23" value="&amp;nbsp;" style="text;strokeColor=none;fillColor=none;align=left;verticalAlign=top;spacingLeft=4;spacingRight=4;overflow=hidden;rotatable=0;points=[[0,0.5],[1,0.5]];portConstraint=eastwest;whiteSpace=wrap;html=1;" parent="RzHxU5xDMUSASD0uNdIL-22" vertex="1">
          <mxGeometry y="26" width="160" height="26" as="geometry" />
        </mxCell>
        <mxCell id="RzHxU5xDMUSASD0uNdIL-24" value="" style="line;strokeWidth=1;fillColor=none;align=left;verticalAlign=middle;spacingTop=-1;spacingLeft=3;spacingRight=3;rotatable=0;labelPosition=right;points=[];portConstraint=eastwest;strokeColor=inherit;" parent="RzHxU5xDMUSASD0uNdIL-22" vertex="1">
          <mxGeometry y="52" width="160" height="8" as="geometry" />
        </mxCell>
        <mxCell id="RzHxU5xDMUSASD0uNdIL-25" value="+ ForumManager()&lt;div&gt;+ GetBranch(): ForumPublication[]&lt;/div&gt;&lt;div&gt;+ GetQuestionPublications(): ForumPublication[]&lt;/div&gt;&lt;div&gt;+ AddQuestion (text : string, author : User): void&lt;/div&gt;&lt;div&gt;+ AddAnswer(text : string, author : User, questionPublication : ForumPublication) : void&lt;/div&gt;" style="text;strokeColor=none;fillColor=none;align=left;verticalAlign=top;spacingLeft=4;spacingRight=4;overflow=hidden;rotatable=0;points=[[0,0.5],[1,0.5]];portConstraint=eastwest;whiteSpace=wrap;html=1;" parent="RzHxU5xDMUSASD0uNdIL-22" vertex="1">
          <mxGeometry y="60" width="160" height="190" as="geometry" />
        </mxCell>
        <mxCell id="RzHxU5xDMUSASD0uNdIL-43" value="" style="endArrow=classic;html=1;rounded=0;exitX=0.5;exitY=0;exitDx=0;exitDy=0;entryX=0.5;entryY=1.021;entryDx=0;entryDy=0;entryPerimeter=0;" parent="WIyWlLk6GJQsqaUBKTNV-1" source="RzHxU5xDMUSASD0uNdIL-14" target="CAt87Y8O4JC6d1RtImim-11" edge="1">
          <mxGeometry width="50" height="50" relative="1" as="geometry">
            <mxPoint x="-1708" y="283.5" as="sourcePoint" />
            <mxPoint x="-1658" y="233.5" as="targetPoint" />
          </mxGeometry>
        </mxCell>
        <mxCell id="RzHxU5xDMUSASD0uNdIL-44" value="" style="endArrow=classic;html=1;rounded=0;exitX=0.25;exitY=0;exitDx=0;exitDy=0;entryX=0.25;entryY=1.014;entryDx=0;entryDy=0;entryPerimeter=0;" parent="WIyWlLk6GJQsqaUBKTNV-1" source="RzHxU5xDMUSASD0uNdIL-22" target="CAt87Y8O4JC6d1RtImim-56" edge="1">
          <mxGeometry width="50" height="50" relative="1" as="geometry">
            <mxPoint x="-1598" y="291.5" as="sourcePoint" />
            <mxPoint x="-1158" y="271.5" as="targetPoint" />
          </mxGeometry>
        </mxCell>
        <mxCell id="RzHxU5xDMUSASD0uNdIL-75" value="ExerciseManager" style="swimlane;fontStyle=1;align=center;verticalAlign=top;childLayout=stackLayout;horizontal=1;startSize=26;horizontalStack=0;resizeParent=1;resizeParentMax=0;resizeLast=0;collapsible=1;marginBottom=0;whiteSpace=wrap;html=1;" parent="WIyWlLk6GJQsqaUBKTNV-1" vertex="1">
          <mxGeometry x="255" y="333.5" width="160" height="160" as="geometry" />
        </mxCell>
        <mxCell id="RzHxU5xDMUSASD0uNdIL-76" value="&amp;nbsp;" style="text;strokeColor=none;fillColor=none;align=left;verticalAlign=top;spacingLeft=4;spacingRight=4;overflow=hidden;rotatable=0;points=[[0,0.5],[1,0.5]];portConstraint=eastwest;whiteSpace=wrap;html=1;" parent="RzHxU5xDMUSASD0uNdIL-75" vertex="1">
          <mxGeometry y="26" width="160" height="26" as="geometry" />
        </mxCell>
        <mxCell id="RzHxU5xDMUSASD0uNdIL-77" value="" style="line;strokeWidth=1;fillColor=none;align=left;verticalAlign=middle;spacingTop=-1;spacingLeft=3;spacingRight=3;rotatable=0;labelPosition=right;points=[];portConstraint=eastwest;strokeColor=inherit;" parent="RzHxU5xDMUSASD0uNdIL-75" vertex="1">
          <mxGeometry y="52" width="160" height="8" as="geometry" />
        </mxCell>
        <mxCell id="RzHxU5xDMUSASD0uNdIL-78" value="&lt;div&gt;+ ExerciseManager()&lt;/div&gt;+ AddExercise(name : string, description : string) : void&lt;div&gt;+ DeleteExercise(exercise : Exercise) : void&lt;/div&gt;" style="text;strokeColor=none;fillColor=none;align=left;verticalAlign=top;spacingLeft=4;spacingRight=4;overflow=hidden;rotatable=0;points=[[0,0.5],[1,0.5]];portConstraint=eastwest;whiteSpace=wrap;html=1;" parent="RzHxU5xDMUSASD0uNdIL-75" vertex="1">
          <mxGeometry y="60" width="160" height="100" as="geometry" />
        </mxCell>
        <mxCell id="RzHxU5xDMUSASD0uNdIL-79" value="" style="endArrow=classic;html=1;rounded=0;exitX=0.5;exitY=0;exitDx=0;exitDy=0;entryX=0.494;entryY=1.048;entryDx=0;entryDy=0;entryPerimeter=0;" parent="WIyWlLk6GJQsqaUBKTNV-1" source="RzHxU5xDMUSASD0uNdIL-75" target="hVGt1LhpxKJkZvYj-mMZ-7" edge="1">
          <mxGeometry width="50" height="50" relative="1" as="geometry">
            <mxPoint x="-394" y="653" as="sourcePoint" />
            <mxPoint x="-344" y="603" as="targetPoint" />
          </mxGeometry>
        </mxCell>
        <mxCell id="RzHxU5xDMUSASD0uNdIL-80" value="" style="endArrow=classic;html=1;rounded=0;entryX=0;entryY=0;entryDx=0;entryDy=0;entryPerimeter=0;exitX=1;exitY=0.033;exitDx=0;exitDy=0;exitPerimeter=0;" parent="WIyWlLk6GJQsqaUBKTNV-1" source="CAt87Y8O4JC6d1RtImim-39" target="hVGt1LhpxKJkZvYj-mMZ-5" edge="1">
          <mxGeometry width="50" height="50" relative="1" as="geometry">
            <mxPoint x="127" y="92" as="sourcePoint" />
            <mxPoint x="-773" y="93" as="targetPoint" />
          </mxGeometry>
        </mxCell>
        <mxCell id="RzHxU5xDMUSASD0uNdIL-81" value="UserManager" style="swimlane;fontStyle=1;align=center;verticalAlign=top;childLayout=stackLayout;horizontal=1;startSize=26;horizontalStack=0;resizeParent=1;resizeParentMax=0;resizeLast=0;collapsible=1;marginBottom=0;whiteSpace=wrap;html=1;" parent="WIyWlLk6GJQsqaUBKTNV-1" vertex="1">
          <mxGeometry x="-854" y="769" width="160" height="190" as="geometry" />
        </mxCell>
        <mxCell id="RzHxU5xDMUSASD0uNdIL-82" value="&amp;nbsp;" style="text;strokeColor=none;fillColor=none;align=left;verticalAlign=top;spacingLeft=4;spacingRight=4;overflow=hidden;rotatable=0;points=[[0,0.5],[1,0.5]];portConstraint=eastwest;whiteSpace=wrap;html=1;" parent="RzHxU5xDMUSASD0uNdIL-81" vertex="1">
          <mxGeometry y="26" width="160" height="26" as="geometry" />
        </mxCell>
        <mxCell id="RzHxU5xDMUSASD0uNdIL-83" value="" style="line;strokeWidth=1;fillColor=none;align=left;verticalAlign=middle;spacingTop=-1;spacingLeft=3;spacingRight=3;rotatable=0;labelPosition=right;points=[];portConstraint=eastwest;strokeColor=inherit;" parent="RzHxU5xDMUSASD0uNdIL-81" vertex="1">
          <mxGeometry y="52" width="160" height="8" as="geometry" />
        </mxCell>
        <mxCell id="RzHxU5xDMUSASD0uNdIL-84" value="&lt;div&gt;+ UserManager()&lt;/div&gt;+ Register(name : string, email : string, password : string)&lt;div&gt;+ Login(email : string, password : string): void&lt;/div&gt;&lt;div&gt;+ GetStudentByEmail(email : string): Student&lt;/div&gt;" style="text;strokeColor=none;fillColor=none;align=left;verticalAlign=top;spacingLeft=4;spacingRight=4;overflow=hidden;rotatable=0;points=[[0,0.5],[1,0.5]];portConstraint=eastwest;whiteSpace=wrap;html=1;" parent="RzHxU5xDMUSASD0uNdIL-81" vertex="1">
          <mxGeometry y="60" width="160" height="130" as="geometry" />
        </mxCell>
        <mxCell id="ZUK334eIj6v_PWJRf1az-6" value="- questionPublication" style="text;html=1;align=center;verticalAlign=middle;resizable=0;points=[];autosize=1;strokeColor=none;fillColor=none;" parent="WIyWlLk6GJQsqaUBKTNV-1" vertex="1">
          <mxGeometry x="-1038" y="90" width="130" height="30" as="geometry" />
        </mxCell>
        <mxCell id="ZUK334eIj6v_PWJRf1az-10" value="- usefulExercises" style="text;html=1;align=center;verticalAlign=middle;resizable=0;points=[];autosize=1;strokeColor=none;fillColor=none;" parent="WIyWlLk6GJQsqaUBKTNV-1" vertex="1">
          <mxGeometry x="147" y="90" width="110" height="30" as="geometry" />
        </mxCell>
        <mxCell id="ZUK334eIj6v_PWJRf1az-33" value="&lt;font style=&quot;font-size: 12px;&quot;&gt;1&lt;/font&gt;" style="edgeLabel;html=1;align=center;verticalAlign=middle;resizable=0;points=[];" parent="WIyWlLk6GJQsqaUBKTNV-1" vertex="1" connectable="0">
          <mxGeometry x="-548" y="1050" as="geometry">
            <mxPoint x="-4" y="16" as="offset" />
          </mxGeometry>
        </mxCell>
        <mxCell id="ZUK334eIj6v_PWJRf1az-34" value="- Creator" style="text;html=1;align=center;verticalAlign=middle;resizable=0;points=[];autosize=1;strokeColor=none;fillColor=none;" parent="WIyWlLk6GJQsqaUBKTNV-1" vertex="1">
          <mxGeometry x="-548" y="1050" width="70" height="30" as="geometry" />
        </mxCell>
        <mxCell id="H0wqLopW10TmKbg78DOm-40" value="Source" style="swimlane;fontStyle=1;align=center;verticalAlign=top;childLayout=stackLayout;horizontal=1;startSize=26;horizontalStack=0;resizeParent=1;resizeParentMax=0;resizeLast=0;collapsible=1;marginBottom=0;whiteSpace=wrap;html=1;" parent="WIyWlLk6GJQsqaUBKTNV-1" vertex="1">
          <mxGeometry x="-339" y="50" width="190" height="128" as="geometry" />
        </mxCell>
        <mxCell id="H0wqLopW10TmKbg78DOm-41" value="+ Author: string&lt;div&gt;- Links: string[]&lt;/div&gt;" style="text;strokeColor=none;fillColor=none;align=left;verticalAlign=top;spacingLeft=4;spacingRight=4;overflow=hidden;rotatable=0;points=[[0,0.5],[1,0.5]];portConstraint=eastwest;whiteSpace=wrap;html=1;" parent="H0wqLopW10TmKbg78DOm-40" vertex="1">
          <mxGeometry y="26" width="190" height="34" as="geometry" />
        </mxCell>
        <mxCell id="H0wqLopW10TmKbg78DOm-42" value="" style="line;strokeWidth=1;fillColor=none;align=left;verticalAlign=middle;spacingTop=-1;spacingLeft=3;spacingRight=3;rotatable=0;labelPosition=right;points=[];portConstraint=eastwest;strokeColor=inherit;" parent="H0wqLopW10TmKbg78DOm-40" vertex="1">
          <mxGeometry y="60" width="190" height="8" as="geometry" />
        </mxCell>
        <mxCell id="H0wqLopW10TmKbg78DOm-43" value="+ Source(id : int, text : string, author : string, title : string, sources : links[], creator : User)" style="text;strokeColor=none;fillColor=none;align=left;verticalAlign=top;spacingLeft=4;spacingRight=4;overflow=hidden;rotatable=0;points=[[0,0.5],[1,0.5]];portConstraint=eastwest;whiteSpace=wrap;html=1;" parent="H0wqLopW10TmKbg78DOm-40" vertex="1">
          <mxGeometry y="68" width="190" height="60" as="geometry" />
        </mxCell>
        <mxCell id="H0wqLopW10TmKbg78DOm-52" value="&lt;font style=&quot;font-size: 24px;&quot;&gt;*&lt;/font&gt;" style="edgeLabel;html=1;align=center;verticalAlign=middle;resizable=0;points=[];" parent="WIyWlLk6GJQsqaUBKTNV-1" vertex="1" connectable="0">
          <mxGeometry x="237" y="72" as="geometry" />
        </mxCell>
        <mxCell id="hE9j59AOJjWSHKdSszYM-1" value="&amp;lt;&amp;lt;enumeration&amp;gt;&amp;gt;&lt;div&gt;Importancy&lt;/div&gt;" style="swimlane;fontStyle=0;childLayout=stackLayout;horizontal=1;startSize=26;fillColor=none;horizontalStack=0;resizeParent=1;resizeParentMax=0;resizeLast=0;collapsible=1;marginBottom=0;whiteSpace=wrap;html=1;" parent="WIyWlLk6GJQsqaUBKTNV-1" vertex="1">
          <mxGeometry x="-336" y="828" width="140" height="104" as="geometry" />
        </mxCell>
        <mxCell id="hE9j59AOJjWSHKdSszYM-2" value="User" style="text;strokeColor=none;fillColor=none;align=left;verticalAlign=top;spacingLeft=4;spacingRight=4;overflow=hidden;rotatable=0;points=[[0,0.5],[1,0.5]];portConstraint=eastwest;whiteSpace=wrap;html=1;" parent="hE9j59AOJjWSHKdSszYM-1" vertex="1">
          <mxGeometry y="26" width="140" height="26" as="geometry" />
        </mxCell>
        <mxCell id="hE9j59AOJjWSHKdSszYM-3" value="Admin" style="text;strokeColor=none;fillColor=none;align=left;verticalAlign=top;spacingLeft=4;spacingRight=4;overflow=hidden;rotatable=0;points=[[0,0.5],[1,0.5]];portConstraint=eastwest;whiteSpace=wrap;html=1;" parent="hE9j59AOJjWSHKdSszYM-1" vertex="1">
          <mxGeometry y="52" width="140" height="26" as="geometry" />
        </mxCell>
        <mxCell id="hE9j59AOJjWSHKdSszYM-4" value="Me" style="text;strokeColor=none;fillColor=none;align=left;verticalAlign=top;spacingLeft=4;spacingRight=4;overflow=hidden;rotatable=0;points=[[0,0.5],[1,0.5]];portConstraint=eastwest;whiteSpace=wrap;html=1;" parent="hE9j59AOJjWSHKdSszYM-1" vertex="1">
          <mxGeometry y="78" width="140" height="26" as="geometry" />
        </mxCell>
        <mxCell id="hE9j59AOJjWSHKdSszYM-5" value="" style="endArrow=open;endSize=12;dashed=1;html=1;rounded=0;exitX=1;exitY=0.854;exitDx=0;exitDy=0;entryX=0;entryY=0.5;entryDx=0;entryDy=0;exitPerimeter=0;" parent="WIyWlLk6GJQsqaUBKTNV-1" source="hVGt1LhpxKJkZvYj-mMZ-1" target="hE9j59AOJjWSHKdSszYM-3" edge="1">
          <mxGeometry width="160" relative="1" as="geometry">
            <mxPoint x="-404" y="1043" as="sourcePoint" />
            <mxPoint x="-244" y="1043" as="targetPoint" />
          </mxGeometry>
        </mxCell>
        <mxCell id="HF5EdESs-gFM-KW1fIXI-3" value="Report" style="swimlane;fontStyle=1;align=center;verticalAlign=top;childLayout=stackLayout;horizontal=1;startSize=26;horizontalStack=0;resizeParent=1;resizeParentMax=0;resizeLast=0;collapsible=1;marginBottom=0;whiteSpace=wrap;html=1;" parent="WIyWlLk6GJQsqaUBKTNV-1" vertex="1">
          <mxGeometry x="-1938" y="90" width="160" height="130" as="geometry" />
        </mxCell>
        <mxCell id="HF5EdESs-gFM-KW1fIXI-4" value="+ Reason: string" style="text;strokeColor=none;fillColor=none;align=left;verticalAlign=top;spacingLeft=4;spacingRight=4;overflow=hidden;rotatable=0;points=[[0,0.5],[1,0.5]];portConstraint=eastwest;whiteSpace=wrap;html=1;" parent="HF5EdESs-gFM-KW1fIXI-3" vertex="1">
          <mxGeometry y="26" width="160" height="26" as="geometry" />
        </mxCell>
        <mxCell id="HF5EdESs-gFM-KW1fIXI-5" value="" style="line;strokeWidth=1;fillColor=none;align=left;verticalAlign=middle;spacingTop=-1;spacingLeft=3;spacingRight=3;rotatable=0;labelPosition=right;points=[];portConstraint=eastwest;strokeColor=inherit;" parent="HF5EdESs-gFM-KW1fIXI-3" vertex="1">
          <mxGeometry y="52" width="160" height="8" as="geometry" />
        </mxCell>
        <mxCell id="HF5EdESs-gFM-KW1fIXI-6" value="+ Report(text : string, author : User, reportedPublication: AuthoredPublication, reason : string)" style="text;strokeColor=none;fillColor=none;align=left;verticalAlign=top;spacingLeft=4;spacingRight=4;overflow=hidden;rotatable=0;points=[[0,0.5],[1,0.5]];portConstraint=eastwest;whiteSpace=wrap;html=1;" parent="HF5EdESs-gFM-KW1fIXI-3" vertex="1">
          <mxGeometry y="60" width="160" height="70" as="geometry" />
        </mxCell>
        <mxCell id="HF5EdESs-gFM-KW1fIXI-19" value="ReportManager" style="swimlane;fontStyle=1;align=center;verticalAlign=top;childLayout=stackLayout;horizontal=1;startSize=26;horizontalStack=0;resizeParent=1;resizeParentMax=0;resizeLast=0;collapsible=1;marginBottom=0;whiteSpace=wrap;html=1;" parent="WIyWlLk6GJQsqaUBKTNV-1" vertex="1">
          <mxGeometry x="-1938" y="336" width="160" height="190" as="geometry" />
        </mxCell>
        <mxCell id="HF5EdESs-gFM-KW1fIXI-20" value="&amp;nbsp;" style="text;strokeColor=none;fillColor=none;align=left;verticalAlign=top;spacingLeft=4;spacingRight=4;overflow=hidden;rotatable=0;points=[[0,0.5],[1,0.5]];portConstraint=eastwest;whiteSpace=wrap;html=1;" parent="HF5EdESs-gFM-KW1fIXI-19" vertex="1">
          <mxGeometry y="26" width="160" height="26" as="geometry" />
        </mxCell>
        <mxCell id="HF5EdESs-gFM-KW1fIXI-21" value="" style="line;strokeWidth=1;fillColor=none;align=left;verticalAlign=middle;spacingTop=-1;spacingLeft=3;spacingRight=3;rotatable=0;labelPosition=right;points=[];portConstraint=eastwest;strokeColor=inherit;" parent="HF5EdESs-gFM-KW1fIXI-19" vertex="1">
          <mxGeometry y="52" width="160" height="8" as="geometry" />
        </mxCell>
        <mxCell id="HF5EdESs-gFM-KW1fIXI-22" value="+ ReportManager()&lt;div&gt;+ DeleteReport(report : Report): void&lt;/div&gt;&lt;div&gt;+ AddReport(text : string, author : User, reportedPublication : AuthoredPublication, reason : string): void&lt;/div&gt;&lt;div&gt;&lt;br&gt;&lt;/div&gt;&lt;div&gt;&lt;br&gt;&lt;/div&gt;" style="text;strokeColor=none;fillColor=none;align=left;verticalAlign=top;spacingLeft=4;spacingRight=4;overflow=hidden;rotatable=0;points=[[0,0.5],[1,0.5]];portConstraint=eastwest;whiteSpace=wrap;html=1;" parent="HF5EdESs-gFM-KW1fIXI-19" vertex="1">
          <mxGeometry y="60" width="160" height="130" as="geometry" />
        </mxCell>
        <mxCell id="W3-w4-7kHwve5nq3VLzU-0" value="" style="endArrow=classic;html=1;rounded=0;fontSize=12;startSize=8;endSize=8;curved=1;exitX=0.5;exitY=0;exitDx=0;exitDy=0;entryX=0.5;entryY=1;entryDx=0;entryDy=0;entryPerimeter=0;" parent="WIyWlLk6GJQsqaUBKTNV-1" source="HF5EdESs-gFM-KW1fIXI-19" target="HF5EdESs-gFM-KW1fIXI-6" edge="1">
          <mxGeometry width="50" height="50" relative="1" as="geometry">
            <mxPoint x="-1958" y="291" as="sourcePoint" />
            <mxPoint x="-1908" y="241" as="targetPoint" />
          </mxGeometry>
        </mxCell>
        <mxCell id="W3-w4-7kHwve5nq3VLzU-8" value="" style="endArrow=classic;html=1;rounded=0;fontSize=12;startSize=8;endSize=8;curved=1;exitX=0.994;exitY=0.246;exitDx=0;exitDy=0;exitPerimeter=0;entryX=0;entryY=0.632;entryDx=0;entryDy=0;entryPerimeter=0;" parent="WIyWlLk6GJQsqaUBKTNV-1" source="RzHxU5xDMUSASD0uNdIL-84" target="hVGt1LhpxKJkZvYj-mMZ-1" edge="1">
          <mxGeometry width="50" height="50" relative="1" as="geometry">
            <mxPoint x="-684" y="1013" as="sourcePoint" />
            <mxPoint x="-614" y="853" as="targetPoint" />
          </mxGeometry>
        </mxCell>
        <mxCell id="O_dw3LHJavpmpE3vmrLS-0" value="" style="endArrow=block;endSize=16;endFill=0;html=1;rounded=0;exitX=0.5;exitY=0;exitDx=0;exitDy=0;entryX=0.5;entryY=1;entryDx=0;entryDy=0;entryPerimeter=0;" parent="WIyWlLk6GJQsqaUBKTNV-1" source="CAt87Y8O4JC6d1RtImim-8" target="RzHxU5xDMUSASD0uNdIL-8" edge="1">
          <mxGeometry width="160" relative="1" as="geometry">
            <mxPoint x="-1438" y="60" as="sourcePoint" />
            <mxPoint x="-1278" y="60" as="targetPoint" />
            <Array as="points">
              <mxPoint x="-1368" y="30" />
              <mxPoint x="-1368" y="-18" />
              <mxPoint x="-928" y="-18" />
            </Array>
          </mxGeometry>
        </mxCell>
        <mxCell id="O_dw3LHJavpmpE3vmrLS-1" value="" style="endArrow=block;endSize=16;endFill=0;html=1;rounded=0;exitX=0.5;exitY=0;exitDx=0;exitDy=0;entryX=0.5;entryY=1;entryDx=0;entryDy=0;entryPerimeter=0;" parent="WIyWlLk6GJQsqaUBKTNV-1" source="HF5EdESs-gFM-KW1fIXI-3" target="RzHxU5xDMUSASD0uNdIL-8" edge="1">
          <mxGeometry width="160" relative="1" as="geometry">
            <mxPoint x="-1648" y="60" as="sourcePoint" />
            <mxPoint x="-1088" y="10" as="targetPoint" />
            <Array as="points">
              <mxPoint x="-1858" y="30" />
              <mxPoint x="-1368" y="30" />
              <mxPoint x="-1368" y="-18" />
              <mxPoint x="-928" y="-18" />
            </Array>
          </mxGeometry>
        </mxCell>
        <mxCell id="O_dw3LHJavpmpE3vmrLS-4" value="" style="endArrow=block;endSize=16;endFill=0;html=1;rounded=0;exitX=0.5;exitY=0;exitDx=0;exitDy=0;entryX=0.5;entryY=1;entryDx=0;entryDy=0;entryPerimeter=0;" parent="WIyWlLk6GJQsqaUBKTNV-1" source="CAt87Y8O4JC6d1RtImim-53" target="RzHxU5xDMUSASD0uNdIL-8" edge="1">
          <mxGeometry width="160" relative="1" as="geometry">
            <mxPoint x="-978" y="-150" as="sourcePoint" />
            <mxPoint x="-1368" y="-38" as="targetPoint" />
            <Array as="points">
              <mxPoint x="-1118" y="30" />
              <mxPoint x="-1368" y="30" />
              <mxPoint x="-1368" y="-18" />
              <mxPoint x="-928" y="-18" />
            </Array>
          </mxGeometry>
        </mxCell>
        <mxCell id="O_dw3LHJavpmpE3vmrLS-12" value="PathStage" style="swimlane;fontStyle=1;align=center;verticalAlign=top;childLayout=stackLayout;horizontal=1;startSize=26;horizontalStack=0;resizeParent=1;resizeParentMax=0;resizeLast=0;collapsible=1;marginBottom=0;whiteSpace=wrap;html=1;" parent="WIyWlLk6GJQsqaUBKTNV-1" vertex="1">
          <mxGeometry x="523" y="-118" width="160" height="130" as="geometry" />
        </mxCell>
        <mxCell id="O_dw3LHJavpmpE3vmrLS-13" value="&lt;div&gt;+ ID: int&lt;/div&gt;&lt;div&gt;+ Place: int&lt;/div&gt;" style="text;strokeColor=none;fillColor=none;align=left;verticalAlign=top;spacingLeft=4;spacingRight=4;overflow=hidden;rotatable=0;points=[[0,0.5],[1,0.5]];portConstraint=eastwest;whiteSpace=wrap;html=1;" parent="O_dw3LHJavpmpE3vmrLS-12" vertex="1">
          <mxGeometry y="26" width="160" height="34" as="geometry" />
        </mxCell>
        <mxCell id="O_dw3LHJavpmpE3vmrLS-14" value="" style="line;strokeWidth=1;fillColor=none;align=left;verticalAlign=middle;spacingTop=-1;spacingLeft=3;spacingRight=3;rotatable=0;labelPosition=right;points=[];portConstraint=eastwest;strokeColor=inherit;" parent="O_dw3LHJavpmpE3vmrLS-12" vertex="1">
          <mxGeometry y="60" width="160" height="8" as="geometry" />
        </mxCell>
        <mxCell id="O_dw3LHJavpmpE3vmrLS-15" value="+ PathStage(action : Publication, place : int)" style="text;strokeColor=none;fillColor=none;align=left;verticalAlign=top;spacingLeft=4;spacingRight=4;overflow=hidden;rotatable=0;points=[[0,0.5],[1,0.5]];portConstraint=eastwest;whiteSpace=wrap;html=1;" parent="O_dw3LHJavpmpE3vmrLS-12" vertex="1">
          <mxGeometry y="68" width="160" height="62" as="geometry" />
        </mxCell>
        <mxCell id="O_dw3LHJavpmpE3vmrLS-18" value="" style="endArrow=classic;html=1;rounded=0;exitX=0.5;exitY=0;exitDx=0;exitDy=0;entryX=0.5;entryY=1;entryDx=0;entryDy=0;entryPerimeter=0;" parent="WIyWlLk6GJQsqaUBKTNV-1" source="CAt87Y8O4JC6d1RtImim-4" target="O_dw3LHJavpmpE3vmrLS-15" edge="1">
          <mxGeometry width="50" height="50" relative="1" as="geometry">
            <mxPoint x="745" y="152" as="sourcePoint" />
            <mxPoint x="795" y="102" as="targetPoint" />
          </mxGeometry>
        </mxCell>
        <mxCell id="O_dw3LHJavpmpE3vmrLS-20" value="PersonalPathsManager" style="swimlane;fontStyle=1;align=center;verticalAlign=top;childLayout=stackLayout;horizontal=1;startSize=26;horizontalStack=0;resizeParent=1;resizeParentMax=0;resizeLast=0;collapsible=1;marginBottom=0;whiteSpace=wrap;html=1;" parent="WIyWlLk6GJQsqaUBKTNV-1" vertex="1">
          <mxGeometry x="523" y="433.5" width="160" height="160" as="geometry" />
        </mxCell>
        <mxCell id="O_dw3LHJavpmpE3vmrLS-21" value="&amp;nbsp;" style="text;strokeColor=none;fillColor=none;align=left;verticalAlign=top;spacingLeft=4;spacingRight=4;overflow=hidden;rotatable=0;points=[[0,0.5],[1,0.5]];portConstraint=eastwest;whiteSpace=wrap;html=1;" parent="O_dw3LHJavpmpE3vmrLS-20" vertex="1">
          <mxGeometry y="26" width="160" height="26" as="geometry" />
        </mxCell>
        <mxCell id="O_dw3LHJavpmpE3vmrLS-22" value="" style="line;strokeWidth=1;fillColor=none;align=left;verticalAlign=middle;spacingTop=-1;spacingLeft=3;spacingRight=3;rotatable=0;labelPosition=right;points=[];portConstraint=eastwest;strokeColor=inherit;" parent="O_dw3LHJavpmpE3vmrLS-20" vertex="1">
          <mxGeometry y="52" width="160" height="8" as="geometry" />
        </mxCell>
        <mxCell id="O_dw3LHJavpmpE3vmrLS-23" value="+ PersonaltrackManager()&lt;div&gt;+ AddPersonalTrack(user : User): void&lt;/div&gt;&lt;div&gt;+ GetTrackByUser(user : User): void&lt;/div&gt;" style="text;strokeColor=none;fillColor=none;align=left;verticalAlign=top;spacingLeft=4;spacingRight=4;overflow=hidden;rotatable=0;points=[[0,0.5],[1,0.5]];portConstraint=eastwest;whiteSpace=wrap;html=1;" parent="O_dw3LHJavpmpE3vmrLS-20" vertex="1">
          <mxGeometry y="60" width="160" height="100" as="geometry" />
        </mxCell>
        <mxCell id="O_dw3LHJavpmpE3vmrLS-24" value="" style="endArrow=classic;html=1;rounded=0;exitX=0.5;exitY=0;exitDx=0;exitDy=0;entryX=0.5;entryY=1.012;entryDx=0;entryDy=0;entryPerimeter=0;" parent="WIyWlLk6GJQsqaUBKTNV-1" source="O_dw3LHJavpmpE3vmrLS-20" target="CAt87Y8O4JC6d1RtImim-7" edge="1">
          <mxGeometry width="50" height="50" relative="1" as="geometry">
            <mxPoint x="675" y="382" as="sourcePoint" />
            <mxPoint x="595" y="362" as="targetPoint" />
          </mxGeometry>
        </mxCell>
        <mxCell id="O_dw3LHJavpmpE3vmrLS-26" value="" style="endArrow=classic;html=1;rounded=0;exitX=1;exitY=0.5;exitDx=0;exitDy=0;entryX=0.75;entryY=1;entryDx=0;entryDy=0;entryPerimeter=0;" parent="WIyWlLk6GJQsqaUBKTNV-1" source="CAt87Y8O4JC6d1RtImim-5" target="hVGt1LhpxKJkZvYj-mMZ-3" edge="1">
          <mxGeometry width="50" height="50" relative="1" as="geometry">
            <mxPoint x="-58" y="272" as="sourcePoint" />
            <mxPoint x="132" y="794" as="targetPoint" />
            <Array as="points">
              <mxPoint x="782" y="207" />
              <mxPoint x="782" y="1122" />
              <mxPoint x="-464" y="1122" />
            </Array>
          </mxGeometry>
        </mxCell>
        <mxCell id="O_dw3LHJavpmpE3vmrLS-27" value="1" style="edgeLabel;html=1;align=center;verticalAlign=middle;resizable=0;points=[];" parent="O_dw3LHJavpmpE3vmrLS-26" vertex="1" connectable="0">
          <mxGeometry x="0.9579" y="-1" relative="1" as="geometry">
            <mxPoint x="-12" y="-35" as="offset" />
          </mxGeometry>
        </mxCell>
        <mxCell id="O_dw3LHJavpmpE3vmrLS-28" value="- Pupil" style="edgeLabel;html=1;align=center;verticalAlign=middle;resizable=0;points=[];" parent="O_dw3LHJavpmpE3vmrLS-26" vertex="1" connectable="0">
          <mxGeometry x="0.9517" y="-2" relative="1" as="geometry">
            <mxPoint x="18" y="-47" as="offset" />
          </mxGeometry>
        </mxCell>
        <mxCell id="O_dw3LHJavpmpE3vmrLS-37" value="Content" style="swimlane;fontStyle=1;align=center;verticalAlign=top;childLayout=stackLayout;horizontal=1;startSize=26;horizontalStack=0;resizeParent=1;resizeParentMax=0;resizeLast=0;collapsible=1;marginBottom=0;whiteSpace=wrap;html=1;" parent="WIyWlLk6GJQsqaUBKTNV-1" vertex="1">
          <mxGeometry x="-854" y="22" width="160" height="130" as="geometry" />
        </mxCell>
        <mxCell id="O_dw3LHJavpmpE3vmrLS-38" value="+ ClassName: string" style="text;strokeColor=none;fillColor=none;align=left;verticalAlign=top;spacingLeft=4;spacingRight=4;overflow=hidden;rotatable=0;points=[[0,0.5],[1,0.5]];portConstraint=eastwest;whiteSpace=wrap;html=1;" parent="O_dw3LHJavpmpE3vmrLS-37" vertex="1">
          <mxGeometry y="26" width="160" height="26" as="geometry" />
        </mxCell>
        <mxCell id="O_dw3LHJavpmpE3vmrLS-39" value="" style="line;strokeWidth=1;fillColor=none;align=left;verticalAlign=middle;spacingTop=-1;spacingLeft=3;spacingRight=3;rotatable=0;labelPosition=right;points=[];portConstraint=eastwest;strokeColor=inherit;" parent="O_dw3LHJavpmpE3vmrLS-37" vertex="1">
          <mxGeometry y="52" width="160" height="8" as="geometry" />
        </mxCell>
        <mxCell id="O_dw3LHJavpmpE3vmrLS-40" value="+ ClassnamePublication (id : int, text : string, creator : User, title : string, className : string)" style="text;strokeColor=none;fillColor=none;align=left;verticalAlign=top;spacingLeft=4;spacingRight=4;overflow=hidden;rotatable=0;points=[[0,0.5],[1,0.5]];portConstraint=eastwest;whiteSpace=wrap;html=1;" parent="O_dw3LHJavpmpE3vmrLS-37" vertex="1">
          <mxGeometry y="60" width="160" height="70" as="geometry" />
        </mxCell>
        <mxCell id="O_dw3LHJavpmpE3vmrLS-46" value="" style="endArrow=classic;html=1;rounded=0;exitX=0.25;exitY=0;exitDx=0;exitDy=0;entryX=0;entryY=0.5;entryDx=0;entryDy=0;" parent="WIyWlLk6GJQsqaUBKTNV-1" source="HF5EdESs-gFM-KW1fIXI-3" target="RzHxU5xDMUSASD0uNdIL-8" edge="1">
          <mxGeometry width="50" height="50" relative="1" as="geometry">
            <mxPoint x="-1568" y="-228" as="sourcePoint" />
            <mxPoint x="-1458" y="-79" as="targetPoint" />
            <Array as="points">
              <mxPoint x="-1898" y="-100" />
            </Array>
          </mxGeometry>
        </mxCell>
        <mxCell id="O_dw3LHJavpmpE3vmrLS-47" value="1" style="edgeLabel;html=1;align=center;verticalAlign=middle;resizable=0;points=[];" parent="O_dw3LHJavpmpE3vmrLS-46" vertex="1" connectable="0">
          <mxGeometry x="0.8475" y="2" relative="1" as="geometry">
            <mxPoint x="-2" y="-7" as="offset" />
          </mxGeometry>
        </mxCell>
        <mxCell id="O_dw3LHJavpmpE3vmrLS-48" value="- reportedPublication" style="edgeLabel;html=1;align=center;verticalAlign=middle;resizable=0;points=[];" parent="O_dw3LHJavpmpE3vmrLS-46" vertex="1" connectable="0">
          <mxGeometry x="0.6129" y="-1" relative="1" as="geometry">
            <mxPoint x="11" y="12" as="offset" />
          </mxGeometry>
        </mxCell>
        <mxCell id="O_dw3LHJavpmpE3vmrLS-55" value="SourceManager" style="swimlane;fontStyle=1;align=center;verticalAlign=top;childLayout=stackLayout;horizontal=1;startSize=26;horizontalStack=0;resizeParent=1;resizeParentMax=0;resizeLast=0;collapsible=1;marginBottom=0;whiteSpace=wrap;html=1;" parent="WIyWlLk6GJQsqaUBKTNV-1" vertex="1">
          <mxGeometry x="-325" y="333.5" width="160" height="240" as="geometry" />
        </mxCell>
        <mxCell id="O_dw3LHJavpmpE3vmrLS-56" value="&amp;nbsp;" style="text;strokeColor=none;fillColor=none;align=left;verticalAlign=top;spacingLeft=4;spacingRight=4;overflow=hidden;rotatable=0;points=[[0,0.5],[1,0.5]];portConstraint=eastwest;whiteSpace=wrap;html=1;" parent="O_dw3LHJavpmpE3vmrLS-55" vertex="1">
          <mxGeometry y="26" width="160" height="26" as="geometry" />
        </mxCell>
        <mxCell id="O_dw3LHJavpmpE3vmrLS-57" value="" style="line;strokeWidth=1;fillColor=none;align=left;verticalAlign=middle;spacingTop=-1;spacingLeft=3;spacingRight=3;rotatable=0;labelPosition=right;points=[];portConstraint=eastwest;strokeColor=inherit;" parent="O_dw3LHJavpmpE3vmrLS-55" vertex="1">
          <mxGeometry y="52" width="160" height="8" as="geometry" />
        </mxCell>
        <mxCell id="O_dw3LHJavpmpE3vmrLS-58" value="+ SourceManager()&lt;div&gt;+ GetSources(): Source[]&lt;br&gt;&lt;div&gt;+ AddSource(text : string, author : string, title : string, sources : string[], creator : User)&lt;/div&gt;&lt;div&gt;+ DeleteSource(source : Source): void&lt;/div&gt;&lt;div&gt;+ UpdateSource(source : Source) : void&lt;/div&gt;&lt;/div&gt;" style="text;strokeColor=none;fillColor=none;align=left;verticalAlign=top;spacingLeft=4;spacingRight=4;overflow=hidden;rotatable=0;points=[[0,0.5],[1,0.5]];portConstraint=eastwest;whiteSpace=wrap;html=1;" parent="O_dw3LHJavpmpE3vmrLS-55" vertex="1">
          <mxGeometry y="60" width="160" height="180" as="geometry" />
        </mxCell>
        <mxCell id="O_dw3LHJavpmpE3vmrLS-59" value="ContentManager" style="swimlane;fontStyle=1;align=center;verticalAlign=top;childLayout=stackLayout;horizontal=1;startSize=26;horizontalStack=0;resizeParent=1;resizeParentMax=0;resizeLast=0;collapsible=1;marginBottom=0;whiteSpace=wrap;html=1;" parent="WIyWlLk6GJQsqaUBKTNV-1" vertex="1">
          <mxGeometry x="-864" y="288.5" width="180" height="270" as="geometry" />
        </mxCell>
        <mxCell id="O_dw3LHJavpmpE3vmrLS-60" value="&amp;nbsp;" style="text;strokeColor=none;fillColor=none;align=left;verticalAlign=top;spacingLeft=4;spacingRight=4;overflow=hidden;rotatable=0;points=[[0,0.5],[1,0.5]];portConstraint=eastwest;whiteSpace=wrap;html=1;" parent="O_dw3LHJavpmpE3vmrLS-59" vertex="1">
          <mxGeometry y="26" width="180" height="26" as="geometry" />
        </mxCell>
        <mxCell id="O_dw3LHJavpmpE3vmrLS-61" value="" style="line;strokeWidth=1;fillColor=none;align=left;verticalAlign=middle;spacingTop=-1;spacingLeft=3;spacingRight=3;rotatable=0;labelPosition=right;points=[];portConstraint=eastwest;strokeColor=inherit;" parent="O_dw3LHJavpmpE3vmrLS-59" vertex="1">
          <mxGeometry y="52" width="180" height="8" as="geometry" />
        </mxCell>
        <mxCell id="O_dw3LHJavpmpE3vmrLS-62" value="+ ClassnameManager()&lt;div&gt;+ GetAllClassnames(): ClassnamePublication[]&lt;/div&gt;&lt;div&gt;+ GetClassnamesByClassname (classname : string)&lt;/div&gt;&lt;div&gt;&lt;div&gt;+ AddClassname(text : string, author : string, title : string, sources : string[], creator : User)&lt;/div&gt;&lt;div&gt;+ DeleteClassname(classname : Classname): void&lt;/div&gt;&lt;div&gt;&lt;span style=&quot;background-color: initial;&quot;&gt;+ UpdateClassname(classname : Classname) : void&lt;/span&gt;&lt;/div&gt;&lt;div&gt;&lt;br&gt;&lt;/div&gt;&lt;/div&gt;" style="text;strokeColor=none;fillColor=none;align=left;verticalAlign=top;spacingLeft=4;spacingRight=4;overflow=hidden;rotatable=0;points=[[0,0.5],[1,0.5]];portConstraint=eastwest;whiteSpace=wrap;html=1;" parent="O_dw3LHJavpmpE3vmrLS-59" vertex="1">
          <mxGeometry y="60" width="180" height="210" as="geometry" />
        </mxCell>
        <mxCell id="O_dw3LHJavpmpE3vmrLS-64" value="CognitivePartManager" style="swimlane;fontStyle=1;align=center;verticalAlign=top;childLayout=stackLayout;horizontal=1;startSize=26;horizontalStack=0;resizeParent=1;resizeParentMax=0;resizeLast=0;collapsible=1;marginBottom=0;whiteSpace=wrap;html=1;" parent="WIyWlLk6GJQsqaUBKTNV-1" vertex="1">
          <mxGeometry x="-53" y="318.5" width="200" height="270" as="geometry" />
        </mxCell>
        <mxCell id="O_dw3LHJavpmpE3vmrLS-65" value="&amp;nbsp;" style="text;strokeColor=none;fillColor=none;align=left;verticalAlign=top;spacingLeft=4;spacingRight=4;overflow=hidden;rotatable=0;points=[[0,0.5],[1,0.5]];portConstraint=eastwest;whiteSpace=wrap;html=1;" parent="O_dw3LHJavpmpE3vmrLS-64" vertex="1">
          <mxGeometry y="26" width="200" height="26" as="geometry" />
        </mxCell>
        <mxCell id="O_dw3LHJavpmpE3vmrLS-66" value="" style="line;strokeWidth=1;fillColor=none;align=left;verticalAlign=middle;spacingTop=-1;spacingLeft=3;spacingRight=3;rotatable=0;labelPosition=right;points=[];portConstraint=eastwest;strokeColor=inherit;" parent="O_dw3LHJavpmpE3vmrLS-64" vertex="1">
          <mxGeometry y="52" width="200" height="8" as="geometry" />
        </mxCell>
        <mxCell id="O_dw3LHJavpmpE3vmrLS-67" value="+ CognitivePartManager()&lt;div&gt;+ GetCognitiveParts(): CognitivePart[]&lt;/div&gt;&lt;div&gt;+ GetCognitivepartsByClassname (classname : string): CognitivePart[]&lt;/div&gt;&lt;div&gt;+ AddCognitivePart(text : string, author : string, title : string, sources : string[], creator : User, way_of_handling : string)&lt;/div&gt;&lt;div&gt;+ DeleteCognitivePart (cognitivePart : CognitivePart): void&lt;/div&gt;&lt;div&gt;+ UpdateCognitivePart (cognitivePart : CognitivePart): void&lt;/div&gt;" style="text;strokeColor=none;fillColor=none;align=left;verticalAlign=top;spacingLeft=4;spacingRight=4;overflow=hidden;rotatable=0;points=[[0,0.5],[1,0.5]];portConstraint=eastwest;whiteSpace=wrap;html=1;" parent="O_dw3LHJavpmpE3vmrLS-64" vertex="1">
          <mxGeometry y="60" width="200" height="210" as="geometry" />
        </mxCell>
        <mxCell id="O_dw3LHJavpmpE3vmrLS-68" value="" style="endArrow=classic;html=1;rounded=0;exitX=0.5;exitY=0;exitDx=0;exitDy=0;entryX=0.495;entryY=1;entryDx=0;entryDy=0;entryPerimeter=0;" parent="WIyWlLk6GJQsqaUBKTNV-1" source="O_dw3LHJavpmpE3vmrLS-55" target="H0wqLopW10TmKbg78DOm-43" edge="1">
          <mxGeometry width="50" height="50" relative="1" as="geometry">
            <mxPoint x="-409" y="292" as="sourcePoint" />
            <mxPoint x="-359" y="242" as="targetPoint" />
          </mxGeometry>
        </mxCell>
        <mxCell id="O_dw3LHJavpmpE3vmrLS-69" value="" style="endArrow=classic;html=1;rounded=0;exitX=0.5;exitY=0;exitDx=0;exitDy=0;entryX=0.5;entryY=1;entryDx=0;entryDy=0;entryPerimeter=0;" parent="WIyWlLk6GJQsqaUBKTNV-1" source="O_dw3LHJavpmpE3vmrLS-59" target="O_dw3LHJavpmpE3vmrLS-40" edge="1">
          <mxGeometry width="50" height="50" relative="1" as="geometry">
            <mxPoint x="-754" y="187" as="sourcePoint" />
            <mxPoint x="-704" y="137" as="targetPoint" />
          </mxGeometry>
        </mxCell>
        <mxCell id="O_dw3LHJavpmpE3vmrLS-71" value="" style="endArrow=classic;html=1;rounded=0;exitX=0.5;exitY=0;exitDx=0;exitDy=0;entryX=0.5;entryY=1;entryDx=0;entryDy=0;entryPerimeter=0;" parent="WIyWlLk6GJQsqaUBKTNV-1" source="O_dw3LHJavpmpE3vmrLS-64" target="CAt87Y8O4JC6d1RtImim-39" edge="1">
          <mxGeometry width="50" height="50" relative="1" as="geometry">
            <mxPoint x="-103" y="202" as="sourcePoint" />
            <mxPoint x="-53" y="152" as="targetPoint" />
          </mxGeometry>
        </mxCell>
        <mxCell id="1ziwgP3zCst4A7Ghv3nj-0" value="" style="endArrow=classic;html=1;rounded=0;exitX=0;exitY=0.097;exitDx=0;exitDy=0;exitPerimeter=0;entryX=1;entryY=0;entryDx=0;entryDy=0;entryPerimeter=0;" parent="WIyWlLk6GJQsqaUBKTNV-1" source="O_dw3LHJavpmpE3vmrLS-15" target="hVGt1LhpxKJkZvYj-mMZ-7" edge="1">
          <mxGeometry width="50" height="50" relative="1" as="geometry">
            <mxPoint x="547" y="-278" as="sourcePoint" />
            <mxPoint x="597" y="-328" as="targetPoint" />
            <Array as="points">
              <mxPoint x="477" y="-44" />
              <mxPoint x="477" y="122" />
            </Array>
          </mxGeometry>
        </mxCell>
        <mxCell id="1ziwgP3zCst4A7Ghv3nj-1" value="&lt;font style=&quot;font-size: 12px;&quot;&gt;1&lt;/font&gt;" style="edgeLabel;html=1;align=center;verticalAlign=middle;resizable=0;points=[];" parent="1ziwgP3zCst4A7Ghv3nj-0" vertex="1" connectable="0">
          <mxGeometry x="0.7436" y="1" relative="1" as="geometry">
            <mxPoint x="-24" y="-21" as="offset" />
          </mxGeometry>
        </mxCell>
        <mxCell id="1ziwgP3zCst4A7Ghv3nj-2" value="&lt;font style=&quot;font-size: 12px;&quot;&gt;- action&lt;/font&gt;" style="edgeLabel;html=1;align=center;verticalAlign=middle;resizable=0;points=[];" parent="1ziwgP3zCst4A7Ghv3nj-0" vertex="1" connectable="0">
          <mxGeometry x="0.7875" relative="1" as="geometry">
            <mxPoint y="20" as="offset" />
          </mxGeometry>
        </mxCell>
        <mxCell id="jzGBlK_Bumc5DQAEy5m5-0" value="&lt;i&gt;TitledPublication&lt;/i&gt;" style="swimlane;fontStyle=1;align=center;verticalAlign=top;childLayout=stackLayout;horizontal=1;startSize=26;horizontalStack=0;resizeParent=1;resizeParentMax=0;resizeLast=0;collapsible=1;marginBottom=0;whiteSpace=wrap;html=1;" parent="WIyWlLk6GJQsqaUBKTNV-1" vertex="1">
          <mxGeometry x="-590" y="-198" width="160" height="110" as="geometry" />
        </mxCell>
        <mxCell id="jzGBlK_Bumc5DQAEy5m5-1" value="+ Title: string" style="text;strokeColor=none;fillColor=none;align=left;verticalAlign=top;spacingLeft=4;spacingRight=4;overflow=hidden;rotatable=0;points=[[0,0.5],[1,0.5]];portConstraint=eastwest;whiteSpace=wrap;html=1;" parent="jzGBlK_Bumc5DQAEy5m5-0" vertex="1">
          <mxGeometry y="26" width="160" height="26" as="geometry" />
        </mxCell>
        <mxCell id="jzGBlK_Bumc5DQAEy5m5-2" value="" style="line;strokeWidth=1;fillColor=none;align=left;verticalAlign=middle;spacingTop=-1;spacingLeft=3;spacingRight=3;rotatable=0;labelPosition=right;points=[];portConstraint=eastwest;strokeColor=inherit;" parent="jzGBlK_Bumc5DQAEy5m5-0" vertex="1">
          <mxGeometry y="52" width="160" height="8" as="geometry" />
        </mxCell>
        <mxCell id="jzGBlK_Bumc5DQAEy5m5-3" value="+ TitledPublication(text : string, creator : user, title : string)" style="text;strokeColor=none;fillColor=none;align=left;verticalAlign=top;spacingLeft=4;spacingRight=4;overflow=hidden;rotatable=0;points=[[0,0.5],[1,0.5]];portConstraint=eastwest;whiteSpace=wrap;html=1;" parent="jzGBlK_Bumc5DQAEy5m5-0" vertex="1">
          <mxGeometry y="60" width="160" height="50" as="geometry" />
        </mxCell>
        <mxCell id="mAwo7oO3nD8m3QljUSTQ-2" value="" style="endArrow=block;endSize=16;endFill=0;html=1;rounded=0;exitX=0.5;exitY=0;exitDx=0;exitDy=0;entryX=0.25;entryY=0;entryDx=0;entryDy=0;" parent="WIyWlLk6GJQsqaUBKTNV-1" source="H0wqLopW10TmKbg78DOm-40" target="hVGt1LhpxKJkZvYj-mMZ-4" edge="1">
          <mxGeometry width="160" relative="1" as="geometry">
            <mxPoint x="-233" y="-198" as="sourcePoint" />
            <mxPoint x="-73" y="-198" as="targetPoint" />
            <Array as="points">
              <mxPoint x="-244" y="-48" />
              <mxPoint x="296" y="-48" />
            </Array>
          </mxGeometry>
        </mxCell>
        <mxCell id="mAwo7oO3nD8m3QljUSTQ-3" value="" style="endArrow=block;endSize=16;endFill=0;html=1;rounded=0;entryX=0;entryY=0;entryDx=0;entryDy=0;entryPerimeter=0;exitX=0.5;exitY=0;exitDx=0;exitDy=0;" parent="WIyWlLk6GJQsqaUBKTNV-1" source="O_dw3LHJavpmpE3vmrLS-37" target="jzGBlK_Bumc5DQAEy5m5-3" edge="1">
          <mxGeometry width="160" relative="1" as="geometry">
            <mxPoint x="-748" y="-208" as="sourcePoint" />
            <mxPoint x="-638" y="-168" as="targetPoint" />
            <Array as="points">
              <mxPoint x="-774" y="-138" />
            </Array>
          </mxGeometry>
        </mxCell>
        <mxCell id="mAwo7oO3nD8m3QljUSTQ-5" value="" style="endArrow=block;endSize=16;endFill=0;html=1;rounded=0;exitX=0.5;exitY=0;exitDx=0;exitDy=0;entryX=1;entryY=0;entryDx=0;entryDy=0;entryPerimeter=0;" parent="WIyWlLk6GJQsqaUBKTNV-1" source="hVGt1LhpxKJkZvYj-mMZ-4" target="jzGBlK_Bumc5DQAEy5m5-3" edge="1">
          <mxGeometry width="160" relative="1" as="geometry">
            <mxPoint x="-93" y="-178" as="sourcePoint" />
            <mxPoint x="17" y="-188" as="targetPoint" />
            <Array as="points">
              <mxPoint x="336" y="-138" />
            </Array>
          </mxGeometry>
        </mxCell>
        <mxCell id="mAwo7oO3nD8m3QljUSTQ-6" value="" style="endArrow=block;endSize=16;endFill=0;html=1;rounded=0;entryX=-0.003;entryY=0.595;entryDx=0;entryDy=0;entryPerimeter=0;exitX=1.003;exitY=0.667;exitDx=0;exitDy=0;exitPerimeter=0;" parent="WIyWlLk6GJQsqaUBKTNV-1" source="CAt87Y8O4JC6d1RtImim-39" target="hVGt1LhpxKJkZvYj-mMZ-7" edge="1">
          <mxGeometry width="160" relative="1" as="geometry">
            <mxPoint x="-133" y="2" as="sourcePoint" />
            <mxPoint x="27" y="2" as="targetPoint" />
          </mxGeometry>
        </mxCell>
        <mxCell id="mAwo7oO3nD8m3QljUSTQ-7" value="" style="endArrow=block;endSize=16;endFill=0;html=1;rounded=0;exitX=0;exitY=0;exitDx=0;exitDy=0;exitPerimeter=0;entryX=0.994;entryY=0.185;entryDx=0;entryDy=0;entryPerimeter=0;" parent="WIyWlLk6GJQsqaUBKTNV-1" source="jzGBlK_Bumc5DQAEy5m5-1" target="RzHxU5xDMUSASD0uNdIL-6" edge="1">
          <mxGeometry width="160" relative="1" as="geometry">
            <mxPoint x="-768" y="-218" as="sourcePoint" />
            <mxPoint x="-608" y="-218" as="targetPoint" />
          </mxGeometry>
        </mxCell>
        <mxCell id="JwofLXw1Nb5pPKctonm6-1" value="ReviewRepository" style="swimlane;fontStyle=1;align=center;verticalAlign=top;childLayout=stackLayout;horizontal=1;startSize=26;horizontalStack=0;resizeParent=1;resizeParentMax=0;resizeLast=0;collapsible=1;marginBottom=0;whiteSpace=wrap;html=1;" parent="WIyWlLk6GJQsqaUBKTNV-1" vertex="1">
          <mxGeometry x="-496" y="-722" width="160" height="86" as="geometry" />
        </mxCell>
        <mxCell id="JwofLXw1Nb5pPKctonm6-2" value="+ field: type" style="text;strokeColor=none;fillColor=none;align=left;verticalAlign=top;spacingLeft=4;spacingRight=4;overflow=hidden;rotatable=0;points=[[0,0.5],[1,0.5]];portConstraint=eastwest;whiteSpace=wrap;html=1;" parent="JwofLXw1Nb5pPKctonm6-1" vertex="1">
          <mxGeometry y="26" width="160" height="26" as="geometry" />
        </mxCell>
        <mxCell id="JwofLXw1Nb5pPKctonm6-3" value="" style="line;strokeWidth=1;fillColor=none;align=left;verticalAlign=middle;spacingTop=-1;spacingLeft=3;spacingRight=3;rotatable=0;labelPosition=right;points=[];portConstraint=eastwest;strokeColor=inherit;" parent="JwofLXw1Nb5pPKctonm6-1" vertex="1">
          <mxGeometry y="52" width="160" height="8" as="geometry" />
        </mxCell>
        <mxCell id="JwofLXw1Nb5pPKctonm6-4" value="+ method(type): type" style="text;strokeColor=none;fillColor=none;align=left;verticalAlign=top;spacingLeft=4;spacingRight=4;overflow=hidden;rotatable=0;points=[[0,0.5],[1,0.5]];portConstraint=eastwest;whiteSpace=wrap;html=1;" parent="JwofLXw1Nb5pPKctonm6-1" vertex="1">
          <mxGeometry y="60" width="160" height="26" as="geometry" />
        </mxCell>
        <mxCell id="JwofLXw1Nb5pPKctonm6-5" value="ConnectionRepository" style="swimlane;fontStyle=1;align=center;verticalAlign=top;childLayout=stackLayout;horizontal=1;startSize=26;horizontalStack=0;resizeParent=1;resizeParentMax=0;resizeLast=0;collapsible=1;marginBottom=0;whiteSpace=wrap;html=1;" parent="WIyWlLk6GJQsqaUBKTNV-1" vertex="1">
          <mxGeometry x="-496" y="-1070" width="160" height="250" as="geometry" />
        </mxCell>
        <mxCell id="JwofLXw1Nb5pPKctonm6-6" value="&lt;u&gt;- connectionString : string&lt;/u&gt;" style="text;strokeColor=none;fillColor=none;align=left;verticalAlign=top;spacingLeft=4;spacingRight=4;overflow=hidden;rotatable=0;points=[[0,0.5],[1,0.5]];portConstraint=eastwest;whiteSpace=wrap;html=1;" parent="JwofLXw1Nb5pPKctonm6-5" vertex="1">
          <mxGeometry y="26" width="160" height="26" as="geometry" />
        </mxCell>
        <mxCell id="JwofLXw1Nb5pPKctonm6-7" value="" style="line;strokeWidth=1;fillColor=none;align=left;verticalAlign=middle;spacingTop=-1;spacingLeft=3;spacingRight=3;rotatable=0;labelPosition=right;points=[];portConstraint=eastwest;strokeColor=inherit;" parent="JwofLXw1Nb5pPKctonm6-5" vertex="1">
          <mxGeometry y="52" width="160" height="8" as="geometry" />
        </mxCell>
        <mxCell id="JwofLXw1Nb5pPKctonm6-8" value="+ GetData(sqlQuery : string, converter : IDTOConverter, parameters : string[]) : Publication[]&lt;div&gt;+ GetDictionary(sqlQuery : string, converter : IDTOConverter, parameters : string[]) : Dictionary&amp;lt;int, Publication&amp;gt;&lt;/div&gt;&lt;div&gt;&lt;div&gt;+ DoSimpleAction(sqlQuery : string, parameters : string[]) : void&lt;/div&gt;&lt;/div&gt;" style="text;strokeColor=none;fillColor=none;align=left;verticalAlign=top;spacingLeft=4;spacingRight=4;overflow=hidden;rotatable=0;points=[[0,0.5],[1,0.5]];portConstraint=eastwest;whiteSpace=wrap;html=1;" parent="JwofLXw1Nb5pPKctonm6-5" vertex="1">
          <mxGeometry y="60" width="160" height="190" as="geometry" />
        </mxCell>
        <mxCell id="JwofLXw1Nb5pPKctonm6-9" value="&amp;lt;&amp;lt;interface&amp;gt;&amp;gt; IDTOConverter" style="swimlane;fontStyle=1;align=center;verticalAlign=top;childLayout=stackLayout;horizontal=1;startSize=26;horizontalStack=0;resizeParent=1;resizeParentMax=0;resizeLast=0;collapsible=1;marginBottom=0;whiteSpace=wrap;html=1;" parent="WIyWlLk6GJQsqaUBKTNV-1" vertex="1">
          <mxGeometry x="-790" y="-1012" width="183" height="120" as="geometry" />
        </mxCell>
        <mxCell id="JwofLXw1Nb5pPKctonm6-10" value="&amp;nbsp;" style="text;strokeColor=none;fillColor=none;align=left;verticalAlign=top;spacingLeft=4;spacingRight=4;overflow=hidden;rotatable=0;points=[[0,0.5],[1,0.5]];portConstraint=eastwest;whiteSpace=wrap;html=1;" parent="JwofLXw1Nb5pPKctonm6-9" vertex="1">
          <mxGeometry y="26" width="183" height="26" as="geometry" />
        </mxCell>
        <mxCell id="JwofLXw1Nb5pPKctonm6-11" value="" style="line;strokeWidth=1;fillColor=none;align=left;verticalAlign=middle;spacingTop=-1;spacingLeft=3;spacingRight=3;rotatable=0;labelPosition=right;points=[];portConstraint=eastwest;strokeColor=inherit;" parent="JwofLXw1Nb5pPKctonm6-9" vertex="1">
          <mxGeometry y="52" width="183" height="8" as="geometry" />
        </mxCell>
        <mxCell id="JwofLXw1Nb5pPKctonm6-12" value="+ ConvertFromDTO (SqlDataReader reader): Publication" style="text;strokeColor=none;fillColor=none;align=left;verticalAlign=top;spacingLeft=4;spacingRight=4;overflow=hidden;rotatable=0;points=[[0,0.5],[1,0.5]];portConstraint=eastwest;whiteSpace=wrap;html=1;" parent="JwofLXw1Nb5pPKctonm6-9" vertex="1">
          <mxGeometry y="60" width="183" height="60" as="geometry" />
        </mxCell>
        <mxCell id="JwofLXw1Nb5pPKctonm6-17" value="ReviewConverter" style="swimlane;fontStyle=1;align=center;verticalAlign=top;childLayout=stackLayout;horizontal=1;startSize=26;horizontalStack=0;resizeParent=1;resizeParentMax=0;resizeLast=0;collapsible=1;marginBottom=0;whiteSpace=wrap;html=1;" parent="WIyWlLk6GJQsqaUBKTNV-1" vertex="1">
          <mxGeometry x="-778" y="-804" width="160" height="110" as="geometry" />
        </mxCell>
        <mxCell id="JwofLXw1Nb5pPKctonm6-18" value="- users : Dictionary&amp;lt;int, User&amp;gt;" style="text;strokeColor=none;fillColor=none;align=left;verticalAlign=top;spacingLeft=4;spacingRight=4;overflow=hidden;rotatable=0;points=[[0,0.5],[1,0.5]];portConstraint=eastwest;whiteSpace=wrap;html=1;" parent="JwofLXw1Nb5pPKctonm6-17" vertex="1">
          <mxGeometry y="26" width="160" height="34" as="geometry" />
        </mxCell>
        <mxCell id="JwofLXw1Nb5pPKctonm6-19" value="" style="line;strokeWidth=1;fillColor=none;align=left;verticalAlign=middle;spacingTop=-1;spacingLeft=3;spacingRight=3;rotatable=0;labelPosition=right;points=[];portConstraint=eastwest;strokeColor=inherit;" parent="JwofLXw1Nb5pPKctonm6-17" vertex="1">
          <mxGeometry y="60" width="160" height="8" as="geometry" />
        </mxCell>
        <mxCell id="JwofLXw1Nb5pPKctonm6-20" value="+ ReviewConverter(users : Dictionary&amp;lt;int, User&amp;gt;)" style="text;strokeColor=none;fillColor=none;align=left;verticalAlign=top;spacingLeft=4;spacingRight=4;overflow=hidden;rotatable=0;points=[[0,0.5],[1,0.5]];portConstraint=eastwest;whiteSpace=wrap;html=1;" parent="JwofLXw1Nb5pPKctonm6-17" vertex="1">
          <mxGeometry y="68" width="160" height="42" as="geometry" />
        </mxCell>
        <mxCell id="JwofLXw1Nb5pPKctonm6-21" value="" style="html=1;verticalAlign=bottom;endArrow=open;dashed=1;endSize=8;curved=0;rounded=0;entryX=0.503;entryY=1;entryDx=0;entryDy=0;entryPerimeter=0;exitX=0.5;exitY=0;exitDx=0;exitDy=0;" parent="WIyWlLk6GJQsqaUBKTNV-1" source="JwofLXw1Nb5pPKctonm6-17" target="JwofLXw1Nb5pPKctonm6-12" edge="1">
          <mxGeometry relative="1" as="geometry">
            <mxPoint x="-721" y="-524" as="sourcePoint" />
            <mxPoint x="-801" y="-524" as="targetPoint" />
          </mxGeometry>
        </mxCell>
        <mxCell id="JwofLXw1Nb5pPKctonm6-22" value="UserRepository" style="swimlane;fontStyle=1;align=center;verticalAlign=top;childLayout=stackLayout;horizontal=1;startSize=26;horizontalStack=0;resizeParent=1;resizeParentMax=0;resizeLast=0;collapsible=1;marginBottom=0;whiteSpace=wrap;html=1;" parent="WIyWlLk6GJQsqaUBKTNV-1" vertex="1">
          <mxGeometry x="-778" y="-619.5" width="160" height="100" as="geometry" />
        </mxCell>
        <mxCell id="JwofLXw1Nb5pPKctonm6-23" value="&amp;nbsp;" style="text;strokeColor=none;fillColor=none;align=left;verticalAlign=top;spacingLeft=4;spacingRight=4;overflow=hidden;rotatable=0;points=[[0,0.5],[1,0.5]];portConstraint=eastwest;whiteSpace=wrap;html=1;" parent="JwofLXw1Nb5pPKctonm6-22" vertex="1">
          <mxGeometry y="26" width="160" height="26" as="geometry" />
        </mxCell>
        <mxCell id="JwofLXw1Nb5pPKctonm6-24" value="" style="line;strokeWidth=1;fillColor=none;align=left;verticalAlign=middle;spacingTop=-1;spacingLeft=3;spacingRight=3;rotatable=0;labelPosition=right;points=[];portConstraint=eastwest;strokeColor=inherit;" parent="JwofLXw1Nb5pPKctonm6-22" vertex="1">
          <mxGeometry y="52" width="160" height="8" as="geometry" />
        </mxCell>
        <mxCell id="JwofLXw1Nb5pPKctonm6-25" value="+ GetUserDictionary(): Dictionary&amp;lt;int, User&amp;gt;" style="text;strokeColor=none;fillColor=none;align=left;verticalAlign=top;spacingLeft=4;spacingRight=4;overflow=hidden;rotatable=0;points=[[0,0.5],[1,0.5]];portConstraint=eastwest;whiteSpace=wrap;html=1;" parent="JwofLXw1Nb5pPKctonm6-22" vertex="1">
          <mxGeometry y="60" width="160" height="40" as="geometry" />
        </mxCell>
        <mxCell id="JwofLXw1Nb5pPKctonm6-26" value="ReviewManager" style="swimlane;fontStyle=1;align=center;verticalAlign=top;childLayout=stackLayout;horizontal=1;startSize=26;horizontalStack=0;resizeParent=1;resizeParentMax=0;resizeLast=0;collapsible=1;marginBottom=0;whiteSpace=wrap;html=1;" parent="WIyWlLk6GJQsqaUBKTNV-1" vertex="1">
          <mxGeometry x="-496" y="-462" width="160" height="100" as="geometry" />
        </mxCell>
        <mxCell id="JwofLXw1Nb5pPKctonm6-27" value="&amp;nbsp;" style="text;strokeColor=none;fillColor=none;align=left;verticalAlign=top;spacingLeft=4;spacingRight=4;overflow=hidden;rotatable=0;points=[[0,0.5],[1,0.5]];portConstraint=eastwest;whiteSpace=wrap;html=1;" parent="JwofLXw1Nb5pPKctonm6-26" vertex="1">
          <mxGeometry y="26" width="160" height="26" as="geometry" />
        </mxCell>
        <mxCell id="JwofLXw1Nb5pPKctonm6-28" value="" style="line;strokeWidth=1;fillColor=none;align=left;verticalAlign=middle;spacingTop=-1;spacingLeft=3;spacingRight=3;rotatable=0;labelPosition=right;points=[];portConstraint=eastwest;strokeColor=inherit;" parent="JwofLXw1Nb5pPKctonm6-26" vertex="1">
          <mxGeometry y="52" width="160" height="8" as="geometry" />
        </mxCell>
        <mxCell id="JwofLXw1Nb5pPKctonm6-29" value="ReviewManager(reviewRepository : ReviewRepository)" style="text;strokeColor=none;fillColor=none;align=left;verticalAlign=top;spacingLeft=4;spacingRight=4;overflow=hidden;rotatable=0;points=[[0,0.5],[1,0.5]];portConstraint=eastwest;whiteSpace=wrap;html=1;" parent="JwofLXw1Nb5pPKctonm6-26" vertex="1">
          <mxGeometry y="60" width="160" height="40" as="geometry" />
        </mxCell>
        <mxCell id="JwofLXw1Nb5pPKctonm6-30" value="&amp;lt;&amp;lt;interface&amp;gt;&amp;gt;IReviewRepository" style="swimlane;fontStyle=1;align=center;verticalAlign=top;childLayout=stackLayout;horizontal=1;startSize=26;horizontalStack=0;resizeParent=1;resizeParentMax=0;resizeLast=0;collapsible=1;marginBottom=0;whiteSpace=wrap;html=1;" parent="WIyWlLk6GJQsqaUBKTNV-1" vertex="1">
          <mxGeometry x="-250" y="-832.5" width="200" height="240" as="geometry" />
        </mxCell>
        <mxCell id="JwofLXw1Nb5pPKctonm6-31" value="&amp;nbsp;" style="text;strokeColor=none;fillColor=none;align=left;verticalAlign=top;spacingLeft=4;spacingRight=4;overflow=hidden;rotatable=0;points=[[0,0.5],[1,0.5]];portConstraint=eastwest;whiteSpace=wrap;html=1;" parent="JwofLXw1Nb5pPKctonm6-30" vertex="1">
          <mxGeometry y="26" width="200" height="26" as="geometry" />
        </mxCell>
        <mxCell id="JwofLXw1Nb5pPKctonm6-32" value="" style="line;strokeWidth=1;fillColor=none;align=left;verticalAlign=middle;spacingTop=-1;spacingLeft=3;spacingRight=3;rotatable=0;labelPosition=right;points=[];portConstraint=eastwest;strokeColor=inherit;" parent="JwofLXw1Nb5pPKctonm6-30" vertex="1">
          <mxGeometry y="52" width="200" height="8" as="geometry" />
        </mxCell>
        <mxCell id="JwofLXw1Nb5pPKctonm6-33" value="+ GetAllReviews(): Review[]&lt;div&gt;+ GetReviewsByCreator(creator : User): Review[]&lt;/div&gt;&lt;div&gt;+ SearchFroReviews(query : string): Review[]&lt;/div&gt;&lt;div&gt;+ AddReview(review : Review): void&lt;/div&gt;&lt;div&gt;+ DeleteReview(review : Review): void&lt;/div&gt;&lt;div&gt;+ UpdateReview(review : Review): void&lt;/div&gt;" style="text;strokeColor=none;fillColor=none;align=left;verticalAlign=top;spacingLeft=4;spacingRight=4;overflow=hidden;rotatable=0;points=[[0,0.5],[1,0.5]];portConstraint=eastwest;whiteSpace=wrap;html=1;" parent="JwofLXw1Nb5pPKctonm6-30" vertex="1">
          <mxGeometry y="60" width="200" height="180" as="geometry" />
        </mxCell>
        <mxCell id="JwofLXw1Nb5pPKctonm6-35" value="" style="endArrow=classic;html=1;rounded=0;exitX=0;exitY=0.5;exitDx=0;exitDy=0;entryX=1;entryY=0.5;entryDx=0;entryDy=0;" parent="WIyWlLk6GJQsqaUBKTNV-1" source="JwofLXw1Nb5pPKctonm6-2" target="JwofLXw1Nb5pPKctonm6-18" edge="1">
          <mxGeometry width="50" height="50" relative="1" as="geometry">
            <mxPoint x="-620" y="-770" as="sourcePoint" />
            <mxPoint x="-570" y="-820" as="targetPoint" />
            <Array as="points">
              <mxPoint x="-550" y="-683" />
              <mxPoint x="-550" y="-761" />
            </Array>
          </mxGeometry>
        </mxCell>
        <mxCell id="JwofLXw1Nb5pPKctonm6-36" value="" style="endArrow=classic;html=1;rounded=0;exitX=0;exitY=0.5;exitDx=0;exitDy=0;entryX=1;entryY=0.5;entryDx=0;entryDy=0;" parent="WIyWlLk6GJQsqaUBKTNV-1" source="JwofLXw1Nb5pPKctonm6-2" target="JwofLXw1Nb5pPKctonm6-23" edge="1">
          <mxGeometry width="50" height="50" relative="1" as="geometry">
            <mxPoint x="-570" y="-570" as="sourcePoint" />
            <mxPoint x="-520" y="-620" as="targetPoint" />
            <Array as="points">
              <mxPoint x="-550" y="-683" />
              <mxPoint x="-550" y="-580" />
            </Array>
          </mxGeometry>
        </mxCell>
        <mxCell id="JwofLXw1Nb5pPKctonm6-37" value="" style="html=1;verticalAlign=bottom;endArrow=open;dashed=1;endSize=8;curved=0;rounded=0;entryX=0;entryY=0.5;entryDx=0;entryDy=0;exitX=1;exitY=0.5;exitDx=0;exitDy=0;" parent="WIyWlLk6GJQsqaUBKTNV-1" source="JwofLXw1Nb5pPKctonm6-2" target="JwofLXw1Nb5pPKctonm6-33" edge="1">
          <mxGeometry relative="1" as="geometry">
            <mxPoint x="-720" y="-390" as="sourcePoint" />
            <mxPoint x="-800" y="-390" as="targetPoint" />
          </mxGeometry>
        </mxCell>
        <mxCell id="JwofLXw1Nb5pPKctonm6-38" value="" style="endArrow=classic;html=1;rounded=0;entryX=0.5;entryY=1;entryDx=0;entryDy=0;entryPerimeter=0;exitX=0.5;exitY=0;exitDx=0;exitDy=0;" parent="WIyWlLk6GJQsqaUBKTNV-1" source="JwofLXw1Nb5pPKctonm6-26" target="JwofLXw1Nb5pPKctonm6-4" edge="1">
          <mxGeometry width="50" height="50" relative="1" as="geometry">
            <mxPoint x="-700" y="-330" as="sourcePoint" />
            <mxPoint x="-650" y="-380" as="targetPoint" />
          </mxGeometry>
        </mxCell>
        <mxCell id="JwofLXw1Nb5pPKctonm6-41" value="&lt;font style=&quot;font-size: 12px;&quot;&gt;1&lt;/font&gt;" style="edgeLabel;html=1;align=center;verticalAlign=middle;resizable=0;points=[];" parent="WIyWlLk6GJQsqaUBKTNV-1" vertex="1" connectable="0">
          <mxGeometry x="-430" y="-619.5" as="geometry" />
        </mxCell>
        <mxCell id="JwofLXw1Nb5pPKctonm6-42" value="&lt;font style=&quot;font-size: 12px;&quot;&gt;1&lt;/font&gt;" style="edgeLabel;html=1;align=center;verticalAlign=middle;resizable=0;points=[];" parent="WIyWlLk6GJQsqaUBKTNV-1" vertex="1" connectable="0">
          <mxGeometry x="-610" y="-740" as="geometry" />
        </mxCell>
        <mxCell id="JwofLXw1Nb5pPKctonm6-43" value="&lt;font style=&quot;font-size: 12px;&quot;&gt;1&lt;/font&gt;" style="edgeLabel;html=1;align=center;verticalAlign=middle;resizable=0;points=[];" parent="WIyWlLk6GJQsqaUBKTNV-1" vertex="1" connectable="0">
          <mxGeometry x="-610" y="-560" as="geometry" />
        </mxCell>
        <mxCell id="IdvPf6eH54fY4JUCfseX-4" value="AdminRequest" style="swimlane;fontStyle=1;align=center;verticalAlign=top;childLayout=stackLayout;horizontal=1;startSize=26;horizontalStack=0;resizeParent=1;resizeParentMax=0;resizeLast=0;collapsible=1;marginBottom=0;whiteSpace=wrap;html=1;" parent="WIyWlLk6GJQsqaUBKTNV-1" vertex="1">
          <mxGeometry x="-1688" y="90" width="160" height="110" as="geometry" />
        </mxCell>
        <mxCell id="IdvPf6eH54fY4JUCfseX-5" value="+ IsOffer: bool" style="text;strokeColor=none;fillColor=none;align=left;verticalAlign=top;spacingLeft=4;spacingRight=4;overflow=hidden;rotatable=0;points=[[0,0.5],[1,0.5]];portConstraint=eastwest;whiteSpace=wrap;html=1;" parent="IdvPf6eH54fY4JUCfseX-4" vertex="1">
          <mxGeometry y="26" width="160" height="26" as="geometry" />
        </mxCell>
        <mxCell id="IdvPf6eH54fY4JUCfseX-6" value="" style="line;strokeWidth=1;fillColor=none;align=left;verticalAlign=middle;spacingTop=-1;spacingLeft=3;spacingRight=3;rotatable=0;labelPosition=right;points=[];portConstraint=eastwest;strokeColor=inherit;" parent="IdvPf6eH54fY4JUCfseX-4" vertex="1">
          <mxGeometry y="52" width="160" height="8" as="geometry" />
        </mxCell>
        <mxCell id="IdvPf6eH54fY4JUCfseX-7" value="+ AdminRequest(text : string, creator : User, isOffer : bool)" style="text;strokeColor=none;fillColor=none;align=left;verticalAlign=top;spacingLeft=4;spacingRight=4;overflow=hidden;rotatable=0;points=[[0,0.5],[1,0.5]];portConstraint=eastwest;whiteSpace=wrap;html=1;" parent="IdvPf6eH54fY4JUCfseX-4" vertex="1">
          <mxGeometry y="60" width="160" height="50" as="geometry" />
        </mxCell>
        <mxCell id="IdvPf6eH54fY4JUCfseX-8" value="" style="endArrow=block;endSize=16;endFill=0;html=1;rounded=0;exitX=0.5;exitY=0;exitDx=0;exitDy=0;entryX=0.497;entryY=1;entryDx=0;entryDy=0;entryPerimeter=0;" parent="WIyWlLk6GJQsqaUBKTNV-1" target="RzHxU5xDMUSASD0uNdIL-8" edge="1">
          <mxGeometry width="160" relative="1" as="geometry">
            <mxPoint x="-1608" y="92" as="sourcePoint" />
            <mxPoint x="-958" y="-50" as="targetPoint" />
            <Array as="points">
              <mxPoint x="-1608" y="30" />
              <mxPoint x="-1368" y="30" />
              <mxPoint x="-1368" y="-18" />
              <mxPoint x="-928" y="-18" />
            </Array>
          </mxGeometry>
        </mxCell>
        <mxCell id="IdvPf6eH54fY4JUCfseX-9" value="" style="endArrow=classic;html=1;rounded=0;exitX=0;exitY=0.5;exitDx=0;exitDy=0;entryX=0.25;entryY=1;entryDx=0;entryDy=0;entryPerimeter=0;" parent="WIyWlLk6GJQsqaUBKTNV-1" source="RzHxU5xDMUSASD0uNdIL-6" target="hVGt1LhpxKJkZvYj-mMZ-3" edge="1">
          <mxGeometry width="50" height="50" relative="1" as="geometry">
            <mxPoint x="-1048" y="-170" as="sourcePoint" />
            <mxPoint x="-548" y="1090" as="targetPoint" />
            <Array as="points">
              <mxPoint x="-2058" y="-155" />
              <mxPoint x="-2058" y="1120" />
              <mxPoint x="-544" y="1120" />
            </Array>
          </mxGeometry>
        </mxCell>
        <mxCell id="IdvPf6eH54fY4JUCfseX-10" value="" style="endArrow=classic;html=1;rounded=0;entryX=0.5;entryY=1;entryDx=0;entryDy=0;entryPerimeter=0;exitX=0.5;exitY=0;exitDx=0;exitDy=0;" parent="WIyWlLk6GJQsqaUBKTNV-1" source="IdvPf6eH54fY4JUCfseX-11" target="IdvPf6eH54fY4JUCfseX-7" edge="1">
          <mxGeometry width="50" height="50" relative="1" as="geometry">
            <mxPoint x="-1608" y="300" as="sourcePoint" />
            <mxPoint x="-1588" y="240" as="targetPoint" />
          </mxGeometry>
        </mxCell>
        <mxCell id="IdvPf6eH54fY4JUCfseX-11" value="AdminRequestManager" style="swimlane;fontStyle=1;align=center;verticalAlign=top;childLayout=stackLayout;horizontal=1;startSize=26;horizontalStack=0;resizeParent=1;resizeParentMax=0;resizeLast=0;collapsible=1;marginBottom=0;whiteSpace=wrap;html=1;" parent="WIyWlLk6GJQsqaUBKTNV-1" vertex="1">
          <mxGeometry x="-1688" y="336" width="160" height="170" as="geometry" />
        </mxCell>
        <mxCell id="IdvPf6eH54fY4JUCfseX-12" value="&amp;nbsp;" style="text;strokeColor=none;fillColor=none;align=left;verticalAlign=top;spacingLeft=4;spacingRight=4;overflow=hidden;rotatable=0;points=[[0,0.5],[1,0.5]];portConstraint=eastwest;whiteSpace=wrap;html=1;" parent="IdvPf6eH54fY4JUCfseX-11" vertex="1">
          <mxGeometry y="26" width="160" height="26" as="geometry" />
        </mxCell>
        <mxCell id="IdvPf6eH54fY4JUCfseX-13" value="" style="line;strokeWidth=1;fillColor=none;align=left;verticalAlign=middle;spacingTop=-1;spacingLeft=3;spacingRight=3;rotatable=0;labelPosition=right;points=[];portConstraint=eastwest;strokeColor=inherit;" parent="IdvPf6eH54fY4JUCfseX-11" vertex="1">
          <mxGeometry y="52" width="160" height="8" as="geometry" />
        </mxCell>
        <mxCell id="IdvPf6eH54fY4JUCfseX-14" value="+ AdminRequestManager()&lt;div&gt;+ AddAdminRequest (adminRequest : AdminRequest): void&lt;/div&gt;&lt;div&gt;+ DeleteAdminRequest (adminRequest : AdminRequest): void&lt;/div&gt;&lt;div&gt;&lt;br&gt;&lt;/div&gt;" style="text;strokeColor=none;fillColor=none;align=left;verticalAlign=top;spacingLeft=4;spacingRight=4;overflow=hidden;rotatable=0;points=[[0,0.5],[1,0.5]];portConstraint=eastwest;whiteSpace=wrap;html=1;" parent="IdvPf6eH54fY4JUCfseX-11" vertex="1">
          <mxGeometry y="60" width="160" height="110" as="geometry" />
        </mxCell>
        <mxCell id="IdvPf6eH54fY4JUCfseX-15" value="EmailProof" style="swimlane;fontStyle=1;align=center;verticalAlign=top;childLayout=stackLayout;horizontal=1;startSize=26;horizontalStack=0;resizeParent=1;resizeParentMax=0;resizeLast=0;collapsible=1;marginBottom=0;whiteSpace=wrap;html=1;" parent="WIyWlLk6GJQsqaUBKTNV-1" vertex="1">
          <mxGeometry x="-1148" y="769" width="160" height="124" as="geometry" />
        </mxCell>
        <mxCell id="IdvPf6eH54fY4JUCfseX-16" value="&lt;div&gt;+ Email: string&lt;/div&gt;&lt;div&gt;+ Code: int&lt;/div&gt;&lt;div&gt;+ CreationDate: int&lt;/div&gt;" style="text;strokeColor=none;fillColor=none;align=left;verticalAlign=top;spacingLeft=4;spacingRight=4;overflow=hidden;rotatable=0;points=[[0,0.5],[1,0.5]];portConstraint=eastwest;whiteSpace=wrap;html=1;" parent="IdvPf6eH54fY4JUCfseX-15" vertex="1">
          <mxGeometry y="26" width="160" height="64" as="geometry" />
        </mxCell>
        <mxCell id="IdvPf6eH54fY4JUCfseX-17" value="" style="line;strokeWidth=1;fillColor=none;align=left;verticalAlign=middle;spacingTop=-1;spacingLeft=3;spacingRight=3;rotatable=0;labelPosition=right;points=[];portConstraint=eastwest;strokeColor=inherit;" parent="IdvPf6eH54fY4JUCfseX-15" vertex="1">
          <mxGeometry y="90" width="160" height="8" as="geometry" />
        </mxCell>
        <mxCell id="IdvPf6eH54fY4JUCfseX-18" value="+ EmailProof(email : string)" style="text;strokeColor=none;fillColor=none;align=left;verticalAlign=top;spacingLeft=4;spacingRight=4;overflow=hidden;rotatable=0;points=[[0,0.5],[1,0.5]];portConstraint=eastwest;whiteSpace=wrap;html=1;" parent="IdvPf6eH54fY4JUCfseX-15" vertex="1">
          <mxGeometry y="98" width="160" height="26" as="geometry" />
        </mxCell>
        <mxCell id="C7usVuCC4-y3hJ7hufo2-0" value="PublishOfficial" style="swimlane;fontStyle=1;align=center;verticalAlign=top;childLayout=stackLayout;horizontal=1;startSize=26;horizontalStack=0;resizeParent=1;resizeParentMax=0;resizeLast=0;collapsible=1;marginBottom=0;whiteSpace=wrap;html=1;" vertex="1" parent="WIyWlLk6GJQsqaUBKTNV-1">
          <mxGeometry x="-590" y="30" width="160" height="170" as="geometry" />
        </mxCell>
        <mxCell id="C7usVuCC4-y3hJ7hufo2-1" value="&lt;div&gt;+ ID: int&lt;/div&gt;&lt;div&gt;&lt;span style=&quot;background-color: initial;&quot;&gt;+ Text: string&lt;/span&gt;&lt;/div&gt;&lt;div&gt;+ CreationDate: DateTime&lt;/div&gt;&lt;div&gt;&lt;br&gt;&lt;/div&gt;" style="text;strokeColor=none;fillColor=none;align=left;verticalAlign=top;spacingLeft=4;spacingRight=4;overflow=hidden;rotatable=0;points=[[0,0.5],[1,0.5]];portConstraint=eastwest;whiteSpace=wrap;html=1;" vertex="1" parent="C7usVuCC4-y3hJ7hufo2-0">
          <mxGeometry y="26" width="160" height="64" as="geometry" />
        </mxCell>
        <mxCell id="C7usVuCC4-y3hJ7hufo2-2" value="" style="line;strokeWidth=1;fillColor=none;align=left;verticalAlign=middle;spacingTop=-1;spacingLeft=3;spacingRight=3;rotatable=0;labelPosition=right;points=[];portConstraint=eastwest;strokeColor=inherit;" vertex="1" parent="C7usVuCC4-y3hJ7hufo2-0">
          <mxGeometry y="90" width="160" height="8" as="geometry" />
        </mxCell>
        <mxCell id="C7usVuCC4-y3hJ7hufo2-3" value="+ MakePublicationOfficial (publication : TitledPublication, text : string)" style="text;strokeColor=none;fillColor=none;align=left;verticalAlign=top;spacingLeft=4;spacingRight=4;overflow=hidden;rotatable=0;points=[[0,0.5],[1,0.5]];portConstraint=eastwest;whiteSpace=wrap;html=1;" vertex="1" parent="C7usVuCC4-y3hJ7hufo2-0">
          <mxGeometry y="98" width="160" height="72" as="geometry" />
        </mxCell>
        <mxCell id="C7usVuCC4-y3hJ7hufo2-4" value="" style="endArrow=classic;html=1;rounded=0;exitX=0.5;exitY=0;exitDx=0;exitDy=0;entryX=0.5;entryY=1;entryDx=0;entryDy=0;entryPerimeter=0;" edge="1" parent="WIyWlLk6GJQsqaUBKTNV-1" source="C7usVuCC4-y3hJ7hufo2-0" target="jzGBlK_Bumc5DQAEy5m5-3">
          <mxGeometry width="50" height="50" relative="1" as="geometry">
            <mxPoint x="-734" y="-10" as="sourcePoint" />
            <mxPoint x="-684" y="-60" as="targetPoint" />
          </mxGeometry>
        </mxCell>
        <mxCell id="C7usVuCC4-y3hJ7hufo2-5" value="&lt;font style=&quot;font-size: 12px;&quot;&gt;1&lt;/font&gt;" style="edgeLabel;html=1;align=center;verticalAlign=middle;resizable=0;points=[];" vertex="1" connectable="0" parent="C7usVuCC4-y3hJ7hufo2-4">
          <mxGeometry x="0.4364" y="-2" relative="1" as="geometry">
            <mxPoint x="-20" y="-13" as="offset" />
          </mxGeometry>
        </mxCell>
        <mxCell id="C7usVuCC4-y3hJ7hufo2-6" value="&lt;font style=&quot;font-size: 12px;&quot;&gt;- publication&lt;/font&gt;" style="edgeLabel;html=1;align=center;verticalAlign=middle;resizable=0;points=[];" vertex="1" connectable="0" parent="C7usVuCC4-y3hJ7hufo2-4">
          <mxGeometry x="-0.1636" y="-1" relative="1" as="geometry">
            <mxPoint x="41" y="-46" as="offset" />
          </mxGeometry>
        </mxCell>
        <mxCell id="C7usVuCC4-y3hJ7hufo2-7" value="" style="endArrow=classic;html=1;rounded=0;entryX=0.5;entryY=1.014;entryDx=0;entryDy=0;entryPerimeter=0;exitX=0.5;exitY=0;exitDx=0;exitDy=0;" edge="1" parent="WIyWlLk6GJQsqaUBKTNV-1" source="C7usVuCC4-y3hJ7hufo2-8" target="C7usVuCC4-y3hJ7hufo2-3">
          <mxGeometry width="50" height="50" relative="1" as="geometry">
            <mxPoint x="-536" y="300" as="sourcePoint" />
            <mxPoint x="-514" y="280" as="targetPoint" />
          </mxGeometry>
        </mxCell>
        <mxCell id="C7usVuCC4-y3hJ7hufo2-8" value="PublishOfficialManager" style="swimlane;fontStyle=1;align=center;verticalAlign=top;childLayout=stackLayout;horizontal=1;startSize=26;horizontalStack=0;resizeParent=1;resizeParentMax=0;resizeLast=0;collapsible=1;marginBottom=0;whiteSpace=wrap;html=1;" vertex="1" parent="WIyWlLk6GJQsqaUBKTNV-1">
          <mxGeometry x="-620" y="301" width="220" height="240" as="geometry" />
        </mxCell>
        <mxCell id="C7usVuCC4-y3hJ7hufo2-9" value="&amp;nbsp;" style="text;strokeColor=none;fillColor=none;align=left;verticalAlign=top;spacingLeft=4;spacingRight=4;overflow=hidden;rotatable=0;points=[[0,0.5],[1,0.5]];portConstraint=eastwest;whiteSpace=wrap;html=1;" vertex="1" parent="C7usVuCC4-y3hJ7hufo2-8">
          <mxGeometry y="26" width="220" height="26" as="geometry" />
        </mxCell>
        <mxCell id="C7usVuCC4-y3hJ7hufo2-10" value="" style="line;strokeWidth=1;fillColor=none;align=left;verticalAlign=middle;spacingTop=-1;spacingLeft=3;spacingRight=3;rotatable=0;labelPosition=right;points=[];portConstraint=eastwest;strokeColor=inherit;" vertex="1" parent="C7usVuCC4-y3hJ7hufo2-8">
          <mxGeometry y="52" width="220" height="8" as="geometry" />
        </mxCell>
        <mxCell id="C7usVuCC4-y3hJ7hufo2-11" value="+&amp;nbsp;&lt;span style=&quot;text-align: center;&quot;&gt;PublishOfficialManager&lt;/span&gt;&lt;span style=&quot;text-align: center;&quot;&gt;(&lt;/span&gt;&lt;span style=&quot;text-align: center;&quot;&gt;)&lt;/span&gt;&lt;div&gt;&lt;span style=&quot;text-align: center;&quot;&gt;+ AddPublishOfficial(publishOfficial : PublishOfficial): void&lt;/span&gt;&lt;/div&gt;&lt;div&gt;&lt;span style=&quot;text-align: center;&quot;&gt;+ AcceptPublishOfficial(publishOfficial : PublishOfficial): void&lt;/span&gt;&lt;/div&gt;&lt;div&gt;&lt;span style=&quot;text-align: center;&quot;&gt;DeclinePublishOfficial(publishOfficial : PublishOfficial): void&lt;/span&gt;&lt;/div&gt;&lt;div&gt;&lt;span style=&quot;text-align: center;&quot;&gt;+ DeletePublishOfficialsByPublication (publication : TitledPublication): void&lt;/span&gt;&lt;/div&gt;&lt;div&gt;&lt;span style=&quot;text-align: center;&quot;&gt;+ GetPublishOfficialsByUser(user : USer): PublishOfficial[]&lt;/span&gt;&lt;/div&gt;" style="text;strokeColor=none;fillColor=none;align=left;verticalAlign=top;spacingLeft=4;spacingRight=4;overflow=hidden;rotatable=0;points=[[0,0.5],[1,0.5]];portConstraint=eastwest;whiteSpace=wrap;html=1;" vertex="1" parent="C7usVuCC4-y3hJ7hufo2-8">
          <mxGeometry y="60" width="220" height="180" as="geometry" />
        </mxCell>
        <mxCell id="C7usVuCC4-y3hJ7hufo2-12" value="EmailProofManager" style="swimlane;fontStyle=1;align=center;verticalAlign=top;childLayout=stackLayout;horizontal=1;startSize=26;horizontalStack=0;resizeParent=1;resizeParentMax=0;resizeLast=0;collapsible=1;marginBottom=0;whiteSpace=wrap;html=1;" vertex="1" parent="WIyWlLk6GJQsqaUBKTNV-1">
          <mxGeometry x="-1428" y="751" width="170" height="140" as="geometry" />
        </mxCell>
        <mxCell id="C7usVuCC4-y3hJ7hufo2-13" value="&amp;nbsp;" style="text;strokeColor=none;fillColor=none;align=left;verticalAlign=top;spacingLeft=4;spacingRight=4;overflow=hidden;rotatable=0;points=[[0,0.5],[1,0.5]];portConstraint=eastwest;whiteSpace=wrap;html=1;" vertex="1" parent="C7usVuCC4-y3hJ7hufo2-12">
          <mxGeometry y="26" width="170" height="26" as="geometry" />
        </mxCell>
        <mxCell id="C7usVuCC4-y3hJ7hufo2-14" value="" style="line;strokeWidth=1;fillColor=none;align=left;verticalAlign=middle;spacingTop=-1;spacingLeft=3;spacingRight=3;rotatable=0;labelPosition=right;points=[];portConstraint=eastwest;strokeColor=inherit;" vertex="1" parent="C7usVuCC4-y3hJ7hufo2-12">
          <mxGeometry y="52" width="170" height="8" as="geometry" />
        </mxCell>
        <mxCell id="C7usVuCC4-y3hJ7hufo2-15" value="+ EmailProofManager()&lt;div&gt;+ GetLastProofByEmail (email : Email) : EmailProof?&lt;br&gt;&lt;div&gt;+ DeleteAllProofsByEmail (email : Email) : void&lt;/div&gt;&lt;/div&gt;" style="text;strokeColor=none;fillColor=none;align=left;verticalAlign=top;spacingLeft=4;spacingRight=4;overflow=hidden;rotatable=0;points=[[0,0.5],[1,0.5]];portConstraint=eastwest;whiteSpace=wrap;html=1;" vertex="1" parent="C7usVuCC4-y3hJ7hufo2-12">
          <mxGeometry y="60" width="170" height="80" as="geometry" />
        </mxCell>
        <mxCell id="C7usVuCC4-y3hJ7hufo2-16" value="" style="endArrow=classic;html=1;rounded=0;exitX=1;exitY=0.2;exitDx=0;exitDy=0;exitPerimeter=0;entryX=0;entryY=0.5;entryDx=0;entryDy=0;" edge="1" parent="WIyWlLk6GJQsqaUBKTNV-1" source="C7usVuCC4-y3hJ7hufo2-15" target="IdvPf6eH54fY4JUCfseX-16">
          <mxGeometry width="50" height="50" relative="1" as="geometry">
            <mxPoint x="-1218" y="650" as="sourcePoint" />
            <mxPoint x="-1168" y="600" as="targetPoint" />
          </mxGeometry>
        </mxCell>
        <mxCell id="C7usVuCC4-y3hJ7hufo2-17" value="" style="endArrow=block;endSize=16;endFill=0;html=1;rounded=0;entryX=0.5;entryY=1.005;entryDx=0;entryDy=0;entryPerimeter=0;exitX=0.5;exitY=0;exitDx=0;exitDy=0;" edge="1" parent="WIyWlLk6GJQsqaUBKTNV-1" source="JwofLXw1Nb5pPKctonm6-1" target="JwofLXw1Nb5pPKctonm6-8">
          <mxGeometry width="160" relative="1" as="geometry">
            <mxPoint x="-1020" y="-680" as="sourcePoint" />
            <mxPoint x="-410" y="-800" as="targetPoint" />
          </mxGeometry>
        </mxCell>
      </root>
    </mxGraphModel>
  </diagram>
</mxfile>
